<?xml version="1.0" encoding="UTF-8" standalone="no"?>
<svg width="460px" height="132px" viewBox="0 0 460 132" version="1.1" xmlns="http://www.w3.org/2000/svg" xmlns:xlink="http://www.w3.org/1999/xlink" xmlns:sketch="http://www.bohemiancoding.com/sketch/ns">
    <!-- Generator: Sketch 3.1 (8751) - http://www.bohemiancoding.com/sketch -->
    <title>appstore</title>
    <desc>Created with Sketch.</desc>
    <defs>
        <path id="path-1" d="M0.207111111,0.138 L466,0.138 L466,138 L0.207111111,138"></path>
    </defs>
    <g id="Page-1" stroke="none" stroke-width="1" fill="none" fill-rule="evenodd" sketch:type="MSPage">
        <g id="Finish" sketch:type="MSArtboardGroup" transform="translate(-83.000000, -859.000000)">
            <g id="appstore" sketch:type="MSLayerGroup" transform="translate(80.000000, 856.000000)">
                <g id="Download_on_the_App_Store_Badge_US-UK_135x40">
                    <g id="Group-3">
                        <mask id="mask-2" sketch:name="Clip 2" fill="white">
                            <use xlink:href="#path-1"></use>
                        </mask>
                        <g id="Clip-2"></g>
                        <path d="M449.420756,138 L16.3238074,138 C7.32482963,138 0,130.6584 0,121.67115 L0,16.3047 C0,7.314 7.32482963,0 16.3238074,0 L449.420756,0 C458.416281,0 466,7.314 466,16.3047 L466,121.67115 C466,130.6584 458.416281,138 449.420756,138" id="Fill-1" sketch:type="MSShapeGroup" mask="url(#mask-2)"></path>
                    </g>
                    <path d="M462.658607,121.6746 C462.658607,128.9748 456.742133,134.8881 449.424207,134.8881 L16.3238074,134.8881 C9.00933333,134.8881 3.07214815,128.9748 3.07214815,121.6746 L3.07214815,16.30125 C3.07214815,9.0045 9.00933333,3.0705 16.3238074,3.0705 L449.420756,3.0705 C456.742133,3.0705 462.655156,9.0045 462.655156,16.30125 L462.655156,121.6746 L462.658607,121.6746" id="Fill-4" fill="#00CC99" sketch:type="MSShapeGroup"></path>
                    <path d="M103.997393,68.2548 C103.897289,57.13545 113.10683,51.72585 113.527956,51.47055 C108.312207,43.8702 100.22797,42.83175 97.3870963,42.7524 C90.5973037,42.03825 84.0111704,46.81305 80.5524148,46.81305 C77.0246222,46.81305 71.694963,42.8214 65.9579852,42.9387 C58.5744741,43.05255 51.6604148,47.3271 47.8702815,53.9649 C40.0483852,67.49925 45.8820148,87.3885 53.3759852,98.32845 C57.1246963,103.6863 61.5050963,109.6686 67.2351704,109.45815 C72.8444296,109.22355 74.9397037,105.8805 81.712237,105.8805 C88.4191852,105.8805 90.3867407,109.45815 96.2341778,109.3236 C102.254207,109.22355 106.044341,103.9416 109.661881,98.53545 C113.993956,92.391 115.733689,86.34315 115.802726,86.03265 C115.6612,85.9878 104.111304,81.58215 103.997393,68.2548" id="Fill-5" fill="#FFFFFF" sketch:type="MSShapeGroup"></path>
                    <path d="M92.9514667,35.5557 C95.9649333,31.78485 98.0291407,26.6547 97.4561333,21.44865 C93.0895407,21.64185 87.6287111,24.46395 84.4875259,28.15545 C81.7053333,31.40535 79.22,36.73215 79.8620444,41.74155 C84.7671259,42.10725 89.8033778,39.2679 92.9514667,35.5557" id="Fill-6" fill="#FFFFFF" sketch:type="MSShapeGroup"></path>
                    <path d="M171.746889,89.54475 L167.863556,77.55945 C167.452785,76.33125 166.683022,73.44705 165.543911,68.90685 L165.409289,68.90685 C164.957096,70.863 164.228756,73.74375 163.227719,77.55945 L159.413422,89.54475 L171.746889,89.54475 L171.746889,89.54475 Z M185.174593,108.6888 L177.335437,108.6888 L173.041333,95.20275 L158.118978,95.20275 L154.028533,108.6888 L146.396489,108.6888 L161.184222,62.7762 L170.317822,62.7762 L185.174593,108.6888 L185.174593,108.6888 Z" id="Fill-7" fill="#FFFFFF" sketch:type="MSShapeGroup"></path>
                    <path d="M215.706222,91.9977 C215.706222,88.7754 214.981333,86.1189 213.524652,84.0282 C211.933348,81.85125 209.800104,80.7576 207.118015,80.7576 C205.302341,80.7576 203.652356,81.3648 202.178415,82.5654 C200.701022,83.76945 199.734504,85.3461 199.282311,87.30225 C199.054489,88.2096 198.940578,88.95825 198.940578,89.54475 L198.940578,95.06475 C198.940578,97.47285 199.679274,99.5049 201.156667,101.1609 C202.634059,102.82035 204.553289,103.64835 206.914356,103.64835 C209.686193,103.64835 211.847052,102.57885 213.39003,100.44675 C214.933007,98.3112 215.706222,95.496 215.706222,91.9977 L215.706222,91.9977 Z M223.203644,91.7286 C223.203644,97.359 221.681378,101.8095 218.636844,105.07665 C215.909881,107.985 212.527067,109.43745 208.481496,109.43745 C204.121807,109.43745 200.987526,107.87115 199.078652,104.7351 L198.940578,104.7351 L198.940578,122.17485 L191.58123,122.17485 L191.58123,86.48115 C191.58123,82.94145 191.48803,79.3086 191.308533,75.5826 L197.780756,75.5826 L198.191526,80.83005 L198.3296,80.83005 C200.780415,76.87635 204.508415,74.90295 209.503244,74.90295 C213.414193,74.90295 216.672741,76.4451 219.285793,79.53285 C221.898844,82.62405 223.203644,86.68815 223.203644,91.7286 L223.203644,91.7286 Z" id="Fill-8" fill="#FFFFFF" sketch:type="MSShapeGroup"></path>
                    <path d="M253.804311,91.9977 C253.804311,88.7754 253.07597,86.1189 251.622741,84.0282 C250.031437,81.85125 247.898193,80.7576 245.216104,80.7576 C243.396978,80.7576 241.750444,81.3648 240.273052,82.5654 C238.799111,83.76945 237.836044,85.3461 237.3804,87.30225 C237.15603,88.2096 237.038667,88.95825 237.038667,89.54475 L237.038667,95.06475 C237.038667,97.47285 237.777363,99.5049 239.247852,101.1609 C240.725244,102.82035 242.647926,103.64835 245.012444,103.64835 C247.784281,103.64835 249.941689,102.57885 251.484667,100.44675 C253.031096,98.3112 253.804311,95.496 253.804311,91.9977 L253.804311,91.9977 Z M261.301733,91.7286 C261.301733,97.359 259.779467,101.8095 256.731481,105.07665 C254.00797,107.985 250.621704,109.43745 246.579585,109.43745 C242.216444,109.43745 239.082163,107.87115 237.176741,104.7351 L237.038667,104.7351 L237.038667,122.17485 L229.679319,122.17485 L229.679319,86.48115 C229.679319,82.94145 229.586119,79.3086 229.406622,75.5826 L235.882296,75.5826 L236.289615,80.83005 L236.427689,80.83005 C238.878504,76.87635 242.5996,74.90295 247.601333,74.90295 C251.505378,74.90295 254.77083,76.4451 257.383881,79.53285 C259.993481,82.62405 261.301733,86.68815 261.301733,91.7286 L261.301733,91.7286 Z" id="Fill-9" fill="#FFFFFF" sketch:type="MSShapeGroup"></path>
                    <path d="M303.897585,95.81685 C303.897585,99.7188 302.541007,102.89625 299.817496,105.3492 C296.824741,108.0333 292.658356,109.36845 287.304533,109.36845 C282.364933,109.36845 278.398756,108.41625 275.399096,106.5084 L277.104311,100.37775 C280.335244,102.33045 283.880296,103.3068 287.742919,103.3068 C290.514756,103.3068 292.672163,102.68235 294.222044,101.43 C295.768474,100.1811 296.534785,98.50785 296.534785,96.4137 C296.534785,94.5507 295.903096,92.98095 294.625911,91.7079 C293.359081,90.43485 291.243096,89.2515 288.291763,88.15785 C280.248948,85.1598 276.227541,80.76795 276.227541,74.9892 C276.227541,71.21835 277.639348,68.1237 280.456059,65.71215 C283.265867,63.3006 287.014578,62.09655 291.702193,62.09655 C295.882385,62.09655 299.354948,62.82105 302.123333,64.2735 L300.283496,70.2696 C297.694607,68.862 294.767437,68.1582 291.49163,68.1582 C288.902741,68.1582 286.879956,68.793 285.430178,70.06605 C284.20477,71.2011 283.590341,72.58455 283.590341,74.2233 C283.590341,76.038 284.291067,77.53875 285.702874,78.7152 C286.928281,79.80885 289.154726,80.98875 292.382207,82.2618 C296.334578,83.85225 299.237585,85.7118 301.105037,87.8439 C302.969037,89.97945 303.897585,92.6394 303.897585,95.81685" id="Fill-10" fill="#FFFFFF" sketch:type="MSShapeGroup"></path>
                    <path d="M328.229689,81.1026 L320.117837,81.1026 L320.117837,97.17615 C320.117837,101.2644 321.546904,103.3068 324.411941,103.3068 C325.727096,103.3068 326.821333,103.19295 327.684296,102.9687 L327.884504,108.55425 C326.434726,109.0959 324.529304,109.36845 322.161333,109.36845 C319.254874,109.36845 316.983556,108.4818 315.343926,106.7154 C313.714652,104.9421 312.889659,101.9682 312.889659,97.79025 L312.889659,81.1026 L308.057067,81.1026 L308.057067,75.5826 L312.889659,75.5826 L312.889659,69.52095 L320.117837,67.34055 L320.117837,75.5826 L328.229689,75.5826 L328.229689,81.1026" id="Fill-11" fill="#FFFFFF" sketch:type="MSShapeGroup"></path>
                    <path d="M357.194178,92.1012 C357.194178,89.0514 356.538326,86.43285 355.216267,84.24555 C353.673289,81.60285 351.467556,80.28495 348.609422,80.28495 C345.651185,80.28495 343.40403,81.60285 341.861052,84.24555 C340.538993,86.43285 339.886593,89.0928 339.886593,92.2392 C339.886593,95.29245 340.538993,97.911 341.861052,100.09485 C343.452356,102.7341 345.6788,104.05545 348.543837,104.05545 C351.353644,104.05545 353.559378,102.7134 355.150681,100.02585 C356.510711,97.79715 357.194178,95.151 357.194178,92.1012 L357.194178,92.1012 Z M364.829674,91.86315 C364.829674,96.9519 363.376444,101.12985 360.469985,104.397 C357.422,107.7573 353.37643,109.43745 348.333274,109.43745 C343.473067,109.43745 339.603541,107.8263 336.717793,104.60055 C333.832044,101.37825 332.38917,97.3107 332.38917,92.40825 C332.38917,87.2781 333.873467,83.076 336.852415,79.80885 C339.824459,76.53825 343.835511,74.90295 348.878667,74.90295 C353.742326,74.90295 357.649822,76.5141 360.604607,79.73985 C363.421319,82.87245 364.829674,86.9124 364.829674,91.86315 L364.829674,91.86315 Z" id="Fill-12" fill="#FFFFFF" sketch:type="MSShapeGroup"></path>
                    <path d="M388.751007,82.05135 C388.022667,81.9168 387.249452,81.85125 386.431363,81.85125 C383.842474,81.85125 381.8404,82.8276 380.432044,84.7803 C379.203185,86.5053 378.592207,88.6857 378.592207,91.31805 L378.592207,108.6888 L371.236311,108.6888 L371.301896,86.0085 C371.301896,82.18935 371.208696,78.7152 371.025748,75.5826 L377.439289,75.5826 L377.708533,81.9168 L377.908741,81.9168 C378.685407,79.73985 379.914267,77.98725 381.591867,76.67625 C383.228044,75.4929 385.002296,74.90295 386.91117,74.90295 C387.591185,74.90295 388.205615,74.95125 388.751007,75.0375 L388.751007,82.05135" id="Fill-13" fill="#FFFFFF" sketch:type="MSShapeGroup"></path>
                    <path d="M414.6468,88.66155 C414.695126,86.48115 414.215319,84.6009 413.217733,83.007 C411.944,80.9646 409.9868,79.9434 407.353037,79.9434 C404.947096,79.9434 402.989896,80.94045 401.495244,82.94145 C400.266385,84.5319 399.538044,86.43975 399.317126,88.66155 L414.6468,88.66155 L414.6468,88.66155 Z M421.664415,90.5694 C421.664415,91.8873 421.578119,92.9982 421.39517,93.90555 L399.317126,93.90555 C399.403422,97.17615 400.470044,99.6774 402.516993,101.4024 C404.377541,102.94455 406.786933,103.71735 409.738267,103.71735 C413.00717,103.71735 415.98957,103.19295 418.671659,102.1476 L419.824578,107.25705 C416.690296,108.6198 412.989911,109.3029 408.71997,109.3029 C403.583615,109.3029 399.551852,107.7918 396.617778,104.7696 C393.694059,101.75085 392.22357,97.6971 392.22357,92.6118 C392.22357,87.6162 393.5836,83.45895 396.317467,80.14695 C399.1756,76.6038 403.038222,74.83395 407.89843,74.83395 C412.672341,74.83395 416.28643,76.6038 418.740696,80.14695 C420.687541,82.96215 421.664415,86.43975 421.664415,90.5694 L421.664415,90.5694 Z" id="Fill-14" fill="#FFFFFF" sketch:type="MSShapeGroup"></path>
                    <path d="M165.499037,34.6311 C165.499037,31.99875 164.801763,29.9805 163.403763,28.5729 C162.009215,27.16875 159.972622,26.46495 157.293985,26.46495 C156.154874,26.46495 155.181452,26.5443 154.380622,26.69955 L154.380622,43.5666 C154.825911,43.6356 155.640548,43.66665 156.824533,43.66665 C159.592919,43.66665 161.729615,42.8973 163.238074,41.3586 C164.743081,39.8199 165.499037,37.5774 165.499037,34.6311 L165.499037,34.6311 Z M169.313333,34.53105 C169.313333,38.5917 168.098281,41.6484 165.664726,43.70115 C163.407215,45.5952 160.207348,46.54395 156.05477,46.54395 C154.000919,46.54395 152.237022,46.45425 150.763081,46.2783 L150.763081,24.0879 C152.685763,23.7774 154.756874,23.62215 156.993674,23.62215 C160.942593,23.62215 163.924993,24.4812 165.93397,26.1993 C168.184578,28.1382 169.313333,30.91545 169.313333,34.53105 L169.313333,34.53105 Z" id="Fill-15" fill="#FFFFFF" sketch:type="MSShapeGroup"></path>
                    <path d="M185.78557,38.19495 C185.78557,36.69765 185.461096,35.4108 184.812148,34.33785 C184.056193,33.0372 182.972311,32.3886 181.567407,32.3886 C180.114178,32.3886 179.009585,33.0372 178.250178,34.33785 C177.604681,35.4108 177.280207,36.71835 177.280207,38.2605 C177.280207,39.76125 177.604681,41.0481 178.250178,42.1245 C179.033748,43.41825 180.124533,44.06685 181.532889,44.06685 C182.917081,44.06685 183.997511,43.4079 184.781081,42.09 C185.450741,40.9929 185.78557,39.6957 185.78557,38.19495 L185.78557,38.19495 Z M189.537733,38.07765 C189.537733,40.5789 188.8232,42.6282 187.394133,44.2359 C185.89603,45.88845 183.911215,46.713 181.432785,46.713 C179.044104,46.713 177.142133,45.92295 175.723422,44.33595 C174.308163,42.7524 173.597081,40.75485 173.597081,38.34675 C173.597081,35.8248 174.325422,33.7617 175.789007,32.154 C177.252593,30.5463 179.220148,29.7459 181.698578,29.7459 C184.090711,29.7459 186.006489,30.5394 187.459719,32.12295 C188.840459,33.66165 189.537733,35.64885 189.537733,38.07765 L189.537733,38.07765 Z" id="Fill-16" fill="#FFFFFF" sketch:type="MSShapeGroup"></path>
                    <path d="M216.655481,30.08055 L211.564,46.34385 L208.253674,46.34385 L206.141141,39.2817 C205.606104,37.51875 205.17117,35.7696 204.832889,34.02735 L204.770756,34.02735 C204.456637,35.81445 204.021704,37.56705 203.462504,39.2817 L201.2188,46.34385 L197.870504,46.34385 L193.082785,30.08055 L196.80043,30.08055 L198.640267,37.80855 C199.085556,39.6405 199.454904,41.3793 199.748311,43.03185 L199.810444,43.03185 C200.079689,41.67255 200.524978,39.94065 201.153215,37.84305 L203.462504,30.08055 L206.406933,30.08055 L208.61957,37.67745 C209.154607,39.5301 209.589541,41.31375 209.92437,43.03185 L210.024474,43.03185 C210.269556,41.3586 210.638904,39.57495 211.132519,37.67745 L213.106978,30.08055 L216.655481,30.08055" id="Fill-17" fill="#FFFFFF" sketch:type="MSShapeGroup"></path>
                    <path d="M235.409393,46.34385 L231.791852,46.34385 L231.791852,37.02885 C231.791852,34.15845 230.701067,32.72325 228.512593,32.72325 C227.439067,32.72325 226.5692,33.12 225.899541,33.91005 C225.229881,34.7001 224.895052,35.62815 224.895052,36.69765 L224.895052,46.34385 L221.277511,46.34385 L221.277511,34.73115 C221.277511,33.30285 221.232637,31.7538 221.146341,30.08055 L224.325496,30.08055 L224.494637,32.6232 L224.594741,32.6232 C225.015867,31.83315 225.644104,31.17765 226.469096,30.66015 C227.449422,30.0495 228.547111,29.7459 229.748356,29.7459 C231.26717,29.7459 232.530548,30.2358 233.535037,31.21905 C234.784607,32.4231 235.409393,34.2171 235.409393,36.6045 L235.409393,46.34385" id="Fill-18" fill="#FFFFFF" sketch:type="MSShapeGroup"></path>
                    <path d="M241.771156,22.6182 L245.385244,22.6182 L245.385244,46.34385 L241.771156,46.34385 L241.771156,22.6182 Z" id="Fill-19" fill="#FFFFFF" sketch:type="MSShapeGroup"></path>
                    <path d="M262.927556,38.19495 C262.927556,36.69765 262.603081,35.4108 261.957585,34.33785 C261.20163,33.0372 260.114296,32.3886 258.712844,32.3886 C257.256163,32.3886 256.15157,33.0372 255.395615,34.33785 C254.750119,35.4108 254.425644,36.71835 254.425644,38.2605 C254.425644,39.76125 254.750119,41.0481 255.395615,42.1245 C256.179185,43.41825 257.26997,44.06685 258.678326,44.06685 C260.062519,44.06685 261.139496,43.4079 261.923067,42.09 C262.596178,40.9929 262.927556,39.6957 262.927556,38.19495 L262.927556,38.19495 Z M266.68317,38.07765 C266.68317,40.5789 265.968637,42.6282 264.53957,44.2359 C263.041467,45.88845 261.0532,46.713 258.578222,46.713 C256.186089,46.713 254.284119,45.92295 252.868859,44.33595 C251.4536,42.7524 250.74597,40.75485 250.74597,38.34675 C250.74597,35.8248 251.474311,33.7617 252.934444,32.154 C254.39803,30.5463 256.369037,29.7459 258.840563,29.7459 C261.236148,29.7459 263.148474,30.5394 264.605156,32.12295 C265.989348,33.66165 266.68317,35.64885 266.68317,38.07765 L266.68317,38.07765 Z" id="Fill-20" fill="#FFFFFF" sketch:type="MSShapeGroup"></path>
                    <path d="M280.435348,40.75485 L280.435348,38.2467 C276.445007,38.1777 274.449837,39.27135 274.449837,41.5242 C274.449837,42.3729 274.677659,43.0077 275.143659,43.43205 C275.609659,43.8564 276.203378,44.06685 276.911007,44.06685 C277.704933,44.06685 278.447081,43.81845 279.120193,43.31475 C279.803659,42.8145 280.221333,42.1728 280.376667,41.3931 C280.414637,41.2137 280.435348,40.9998 280.435348,40.75485 L280.435348,40.75485 Z M284.190963,46.34385 L280.94277,46.34385 L280.670074,44.4705 L280.56997,44.4705 C279.458474,45.96435 277.874074,46.713 275.81677,46.713 C274.280696,46.713 273.041481,46.2231 272.102578,45.23985 C271.253422,44.3463 270.828844,43.2423 270.828844,41.92785 C270.828844,39.94065 271.657289,38.4261 273.324533,37.37385 C274.988326,36.3285 277.328681,35.81445 280.342148,35.83515 L280.342148,35.535 C280.342148,33.39255 279.216844,32.32305 276.962785,32.32305 C275.357674,32.32305 273.942415,32.72325 272.723911,33.5271 L271.988667,31.15005 C273.497126,30.2151 275.364578,29.7459 277.570311,29.7459 C281.822993,29.7459 283.956237,31.9884 283.956237,36.4734 L283.956237,42.4626 C283.956237,44.091 284.03563,45.38475 284.190963,46.34385 L284.190963,46.34385 Z" id="Fill-21" fill="#FFFFFF" sketch:type="MSShapeGroup"></path>
                    <path d="M300.99803,39.48525 L300.99803,36.77355 C300.99803,36.30435 300.963511,35.92485 300.897926,35.63505 C300.694267,34.76565 300.255881,34.03425 299.589674,33.4443 C298.916563,32.8509 298.105378,32.55765 297.169926,32.55765 C295.820252,32.55765 294.763985,33.0924 293.987319,34.1619 C293.217556,35.23485 292.827496,36.6045 292.827496,38.27775 C292.827496,39.88545 293.196844,41.18955 293.938993,42.1935 C294.722563,43.263 295.77883,43.8012 297.100889,43.8012 C298.288326,43.8012 299.237585,43.3527 299.959022,42.4626 C300.656296,41.63805 300.99803,40.64445 300.99803,39.48525 L300.99803,39.48525 Z M304.746741,46.34385 L301.536519,46.34385 L301.37083,43.7322 L301.267274,43.7322 C300.242074,45.7194 298.498889,46.713 296.044622,46.713 C294.080519,46.713 292.451244,45.94365 291.1568,44.40495 C289.862356,42.8628 289.213407,40.8687 289.213407,38.4123 C289.213407,35.77995 289.914133,33.64785 291.322489,32.0229 C292.68597,30.5049 294.356667,29.7459 296.348385,29.7459 C298.529956,29.7459 300.062578,30.48075 300.932444,31.9539 L300.99803,31.9539 L300.99803,22.6182 L304.619022,22.6182 L304.619022,41.96235 C304.619022,43.5459 304.660444,45.00525 304.746741,46.34385 L304.746741,46.34385 Z" id="Fill-22" fill="#FFFFFF" sketch:type="MSShapeGroup"></path>
                    <path d="M331.936978,38.19495 C331.936978,36.69765 331.612504,35.4108 330.967007,34.33785 C330.204148,33.0372 329.12717,32.3886 327.715363,32.3886 C326.269037,32.3886 325.160993,33.0372 324.398133,34.33785 C323.752637,35.4108 323.428163,36.71835 323.428163,38.2605 C323.428163,39.76125 323.752637,41.0481 324.398133,42.1245 C325.181704,43.41825 326.272489,44.06685 327.684296,44.06685 C329.065037,44.06685 330.15237,43.4079 330.932489,42.09 C331.598696,40.9929 331.936978,39.6957 331.936978,38.19495 L331.936978,38.19495 Z M335.685689,38.07765 C335.685689,40.5789 334.971156,42.6282 333.542089,44.2359 C332.043985,45.88845 330.062622,46.713 327.580741,46.713 C325.195511,46.713 323.293541,45.92295 321.871378,44.33595 C320.456119,42.7524 319.748489,40.75485 319.748489,38.34675 C319.748489,35.8248 320.47683,33.7617 321.940415,32.154 C323.400548,30.5463 325.371556,29.7459 327.853437,29.7459 C330.238667,29.7459 332.161348,30.5394 333.607674,32.12295 C334.991867,33.66165 335.685689,35.64885 335.685689,38.07765 L335.685689,38.07765 Z" id="Fill-23" fill="#FFFFFF" sketch:type="MSShapeGroup"></path>
                    <path d="M355.136874,46.34385 L351.522785,46.34385 L351.522785,37.02885 C351.522785,34.15845 350.432,32.72325 348.240074,32.72325 C347.166548,32.72325 346.296681,33.12 345.630474,33.91005 C344.964267,34.7001 344.625985,35.62815 344.625985,36.69765 L344.625985,46.34385 L341.004993,46.34385 L341.004993,34.73115 C341.004993,33.30285 340.96357,31.7538 340.877274,30.08055 L344.052978,30.08055 L344.222119,32.6232 L344.322222,32.6232 C344.7468,31.83315 345.375037,31.17765 346.196578,30.66015 C347.180356,30.0495 348.274593,29.7459 349.479289,29.7459 C350.998104,29.7459 352.25803,30.2358 353.262519,31.21905 C354.515541,32.4231 355.136874,34.2171 355.136874,36.6045 L355.136874,46.34385" id="Fill-24" fill="#FFFFFF" sketch:type="MSShapeGroup"></path>
                    <path d="M379.482785,32.7888 L375.495896,32.7888 L375.495896,40.6893 C375.495896,42.6972 376.203526,43.70115 377.60843,43.70115 C378.253926,43.70115 378.792415,43.64595 379.216993,43.5321 L379.313644,46.2783 C378.599111,46.54395 377.660207,46.6785 376.500385,46.6785 C375.071319,46.6785 373.959822,46.2438 373.158993,45.3744 C372.347807,44.50155 371.950844,43.0422 371.950844,40.98945 L371.950844,32.7888 L369.569067,32.7888 L369.569067,30.08055 L371.950844,30.08055 L371.950844,27.09975 L375.495896,26.03025 L375.495896,30.08055 L379.482785,30.08055 L379.482785,32.7888" id="Fill-25" fill="#FFFFFF" sketch:type="MSShapeGroup"></path>
                    <path d="M398.633659,46.34385 L395.016119,46.34385 L395.016119,37.09785 C395.016119,34.1826 393.921881,32.72325 391.736859,32.72325 C390.059259,32.72325 388.913244,33.5685 388.285007,35.26245 C388.178,35.6178 388.119319,36.0525 388.119319,36.5631 L388.119319,46.34385 L384.50523,46.34385 L384.50523,22.6182 L388.119319,22.6182 L388.119319,32.41965 L388.184904,32.41965 C389.324015,30.636 390.956741,29.7459 393.072726,29.7459 C394.57083,29.7459 395.810044,30.2358 396.793822,31.21905 C398.022681,32.4438 398.633659,34.2654 398.633659,36.6735 L398.633659,46.34385" id="Fill-26" fill="#FFFFFF" sketch:type="MSShapeGroup"></path>
                    <path d="M414.936756,36.50445 C414.96437,35.43495 414.726193,34.5069 414.23603,33.7272 C413.607793,32.72325 412.65163,32.223 411.357185,32.223 C410.176652,32.223 409.213585,32.7129 408.478341,33.69615 C407.877719,34.47585 407.522178,35.41425 407.404815,36.50445 L414.936756,36.50445 L414.936756,36.50445 Z M418.388607,37.44285 C418.388607,38.09145 418.340281,38.63655 418.253985,39.0816 L407.404815,39.0816 C407.453141,40.6893 407.970919,41.91405 408.975407,42.76275 C409.8936,43.52175 411.081037,43.90125 412.530815,43.90125 C414.135926,43.90125 415.596059,43.64595 416.918119,43.1319 L417.484222,45.64005 C415.941244,46.30935 414.129022,46.64745 412.023393,46.64745 C409.503541,46.64745 407.522178,45.9057 406.086207,44.41875 C404.643333,42.93525 403.9288,40.9446 403.9288,38.4468 C403.9288,35.99385 404.595007,33.95145 405.937778,32.32305 C407.33923,30.5808 409.234296,29.7114 411.62643,29.7114 C413.966785,29.7114 415.744489,30.5808 416.945733,32.32305 C417.9088,33.7065 418.388607,35.41425 418.388607,37.44285 L418.388607,37.44285 Z" id="Fill-27" fill="#FFFFFF" sketch:type="MSShapeGroup"></path>
                </g>
            </g>
        </g>
    </g>
</svg>