<?xml version="1.0" encoding="UTF-8" standalone="no"?>
<svg width="27px" height="39px" viewBox="0 0 27 39" version="1.1" xmlns="http://www.w3.org/2000/svg" xmlns:xlink="http://www.w3.org/1999/xlink" xmlns:sketch="http://www.bohemiancoding.com/sketch/ns">
    <!-- Generator: Sketch 3.1.1 (8761) - http://www.bohemiancoding.com/sketch -->
    <title>Shape</title>
    <desc>Created with Sketch.</desc>
    <defs></defs>
    <g id="Page-1" stroke="none" stroke-width="1" fill="none" fill-rule="evenodd" sketch:type="MSPage">
        <g id="41-Active-Poll" sketch:type="MSArtboardGroup" transform="translate(-151.000000, -2449.000000)" fill="#FFFFFF">
            <g id="Controll-/-Button-L-4" sketch:type="MSLayerGroup" transform="translate(0.000000, 2426.000000)">
                <g id="text-+-Shape" transform="translate(20.000000, 23.000000)" sketch:type="MSShapeGroup">
                    <path d="M151.023548,5.32835165 L149.360435,6.08208791 L150.855016,5.05274725 L151.023548,5.32835165 L151.023548,5.32835165 Z M151.714661,3.35402198 L150.238806,2.1421978 L151.476887,3.57742857 L151.714661,3.35402198 L151.714661,3.35402198 Z M155.040452,-5.99520433e-15 L152.987145,3.07424176 L153.275,3.23459341 L155.040452,-5.99520433e-15 L155.040452,-5.99520433e-15 Z M153.622516,3.9069011 L157.937726,3.5623956 L153.607274,3.58828571 L153.622516,3.9069011 L153.622516,3.9069011 Z M151.938935,4.50446154 C152.137081,7.65971429 155.798194,10.3547912 154.245694,13.5814505 C153.766661,14.5765495 152.863468,15.2388352 152.084387,16.0025934 L150.743532,14.8538242 L149.241984,16.4652747 C147.440387,15.4426154 145.339177,14.8538242 143.093823,14.8538242 C136.414371,14.8538242 131,20.046044 131,26.4505055 C131,32.8553846 136.414806,38.0471868 143.093823,38.0471868 C149.772839,38.0471868 155.187645,32.854967 155.187645,26.4505055 C155.187645,23.9203736 154.340194,21.5814945 152.906145,19.6752308 L154.444274,18.0241099 L152.83821,16.6481758 C152.963194,16.5183077 153.096887,16.3892747 153.240597,16.258989 C154.239597,15.3528352 155.026516,14.4470989 155.473323,13.1801538 C156.594694,10.004022 153.126935,7.51314286 152.938806,4.50446154 C152.899177,3.89145055 151.900177,3.88769231 151.938935,4.50446154 L151.938935,4.50446154 Z" id="Shape"></path>
                </g>
            </g>
        </g>
    </g>
</svg>