<?xml version="1.0" encoding="UTF-8" standalone="no"?>
<svg width="23px" height="23px" viewBox="0 0 23 23" version="1.1" xmlns="http://www.w3.org/2000/svg" xmlns:xlink="http://www.w3.org/1999/xlink" xmlns:sketch="http://www.bohemiancoding.com/sketch/ns">
    <!-- Generator: Sketch 3.1 (8751) - http://www.bohemiancoding.com/sketch -->
    <title>Oval 76 + Checkmark 3</title>
    <desc>Created with Sketch.</desc>
    <defs></defs>
    <g id="Page-1" stroke="none" stroke-width="1" fill="none" fill-rule="evenodd" sketch:type="MSPage">
        <g id="Screen-One" sketch:type="MSArtboardGroup" transform="translate(-358.000000, -532.000000)">
            <g id="Oval-76-+-Checkmark-3" sketch:type="MSLayerGroup" transform="translate(358.000000, 532.000000)">
                <ellipse id="Oval-76" fill="#00CC99" sketch:type="MSShapeGroup" cx="11.0380507" cy="11.0380507" rx="11.0380507" ry="11.0380507"></ellipse>
                <path d="M16.9035377,7.20291195 L10.852842,16.4634054 C10.7886157,16.5617028 10.7135531,16.649527 10.6300662,16.7263532 C10.5912335,16.7628994 10.5498238,16.7977109 10.5058651,16.8305561 C9.88198882,17.2967068 8.97795966,17.1916153 8.48950068,16.5937046 L5.40558006,12.8187529 C4.91827078,12.2222496 5.02792972,11.3574796 5.65307808,10.8903784 C6.27695439,10.4242277 7.18098355,10.5293192 7.66944253,11.1272299 L9.49317753,13.3596192 L14.467195,5.7469647 C14.8878399,5.10317448 15.7733025,4.90862961 16.4460799,5.31067834 C17.1174884,5.71190899 17.3236682,6.55990892 16.9035377,7.20291195 Z" id="Checkmark-3" fill="#FFFFFF" sketch:type="MSShapeGroup"></path>
            </g>
        </g>
    </g>
</svg>