<?xml version="1.0" encoding="UTF-8" standalone="no"?>
<svg width="109px" height="100px" viewBox="0 0 109 100" version="1.1" xmlns="http://www.w3.org/2000/svg" xmlns:xlink="http://www.w3.org/1999/xlink" xmlns:sketch="http://www.bohemiancoding.com/sketch/ns">
    <!-- Generator: Sketch 3.1.1 (8761) - http://www.bohemiancoding.com/sketch -->
    <title>Oval 108</title>
    <desc>Created with Sketch.</desc>
    <defs></defs>
    <g id="Page-1" stroke="none" stroke-width="1" fill="none" fill-rule="evenodd" sketch:type="MSPage">
        <g id="New-Question-2" sketch:type="MSArtboardGroup" transform="translate(-140.000000, -435.000000)" fill="#00CC99">
            <g id="Oval-108-+-Custom-2" sketch:type="MSLayerGroup" transform="translate(140.000000, 435.000000)">
                <path d="M6.91128897,16.1430587 C10.7282885,16.1430587 13.8225779,13.0553673 13.8225779,9.24650699 C13.8225779,5.43764665 10.7282885,2.34995527 6.91128897,2.34995527 C3.09428947,2.34995527 0,5.43764665 0,9.24650699 C0,13.0553673 3.09428947,16.1430587 6.91128897,16.1430587 Z M6.91128897,43.7292656 C10.7282885,43.7292656 13.8225779,40.6415742 13.8225779,36.8327139 C13.8225779,33.0238535 10.7282885,29.9361622 6.91128897,29.9361622 C3.09428947,29.9361622 0,33.0238535 0,36.8327139 C0,40.6415742 3.09428947,43.7292656 6.91128897,43.7292656 Z M6.91128897,71.3154725 C10.7282885,71.3154725 13.8225779,68.2277811 13.8225779,64.4189208 C13.8225779,60.6100604 10.7282885,57.5223691 6.91128897,57.5223691 C3.09428947,57.5223691 0,60.6100604 0,64.4189208 C0,68.2277811 3.09428947,71.3154725 6.91128897,71.3154725 Z M6.91128897,98.9016794 C10.7282885,98.9016794 13.8225779,95.813988 13.8225779,92.0051277 C13.8225779,88.1962673 10.7282885,85.108576 6.91128897,85.108576 C3.09428947,85.108576 0,88.1962673 0,92.0051277 C0,95.813988 3.09428947,98.9016794 6.91128897,98.9016794 Z M22.7331764,0 L22.7331764,17.2413793 L109,17.2413793 L109,0 L22.7331764,0 Z M22.4454908,27.5862069 L22.4454908,44.8275862 L93.2862027,44.8275862 L93.2862027,27.5862069 L22.4454908,27.5862069 Z M22.4454908,55.1724138 L22.4454908,72.4137931 L74.2801581,72.4137931 L74.2801581,55.1724138 L22.4454908,55.1724138 Z M22.4454908,82.7586207 L22.4454908,100 L101.925314,100 L101.925314,82.7586207 L22.4454908,82.7586207 Z" id="Oval-108" sketch:type="MSShapeGroup"></path>
            </g>
        </g>
    </g>
</svg>