<?xml version="1.0" encoding="UTF-8" standalone="no"?>
<svg width="30px" height="35px" viewBox="0 0 30 35" version="1.1" xmlns="http://www.w3.org/2000/svg" xmlns:xlink="http://www.w3.org/1999/xlink" xmlns:sketch="http://www.bohemiancoding.com/sketch/ns">
    <!-- Generator: Sketch 3.1.1 (8761) - http://www.bohemiancoding.com/sketch -->
    <title>Group 3</title>
    <desc>Created with Sketch.</desc>
    <defs></defs>
    <g id="Page-1" stroke="none" stroke-width="1" fill="none" fill-rule="evenodd" sketch:type="MSPage">
        <g id="Custom-Voting" sketch:type="MSArtboardGroup" transform="translate(-580.000000, -154.000000)" fill="#BEBEBE">
            <g id="Type-your-question..-+-Line-9" sketch:type="MSLayerGroup" transform="translate(30.000000, 153.000000)">
                <g id="Group-3" transform="translate(550.000000, 2.000000)" sketch:type="MSShapeGroup">
                    <path d="M23.7136364,1.17983908 C23.7136364,0.489678161 23.1545455,-0.071908046 22.462987,-0.071908046 C21.7761039,-0.071908046 21.2154545,0.490068966 21.2154545,1.17983908 L21.2154545,6.11218391 C21.2154545,6.80468966 21.7761039,7.36549425 22.462987,7.36549425 C23.1545455,7.36549425 23.7136364,6.80508046 23.7136364,6.11218391 L23.7136364,1.17983908 L23.7136364,1.17983908 Z" id="Shape"></path>
                    <path d="M26.4284416,4.01317241 L24.7355844,4.01317241 L24.7355844,6.11218391 C24.7355844,7.36862069 23.7183117,8.39057471 22.462987,8.39057471 C21.2127273,8.39057471 20.1942857,7.36862069 20.1942857,6.11218391 L20.1942857,4.01317241 L9.85441558,4.01317241 L9.85441558,6.11218391 C9.85441558,7.36862069 8.83753247,8.39057471 7.58571429,8.39057471 C6.3338961,8.39057471 5.31467532,7.36862069 5.31467532,6.11218391 L5.31467532,4.01317241 L3.61831169,4.01317241 C1.69246753,4.01317241 0.131298701,5.57795402 0.13012987,7.51087356 L0.13012987,30.4761149 C0.131298701,32.4070805 1.69012987,33.9726437 3.61831169,33.9738161 L26.4284416,33.9738161 C28.3538961,33.9726437 29.9135065,32.4070805 29.9158442,30.4761149 L29.9158442,7.51048276 C29.9135065,5.57756322 28.3538961,4.01395402 26.4284416,4.01317241 L26.4284416,4.01317241 Z M27.0284416,30.4757241 C27.0284416,30.805954 26.7572727,31.0783448 26.4284416,31.0783448 L3.61831169,31.0783448 C3.28675325,31.0783448 3.01753247,30.805954 3.01636364,30.4757241 L3.01636364,12.1024368 L27.0284416,12.1024368 L27.0284416,30.4757241 L27.0284416,30.4757241 Z" id="Shape"></path>
                    <path d="M8.83402597,1.17983908 C8.83402597,0.489678161 8.27376623,-0.071908046 7.58571429,-0.071908046 C6.89415584,-0.071908046 6.33662338,0.490068966 6.33662338,1.17983908 L6.33662338,6.11218391 C6.33662338,6.80468966 6.89415584,7.36549425 7.58571429,7.36549425 C8.27376623,7.36549425 8.83402597,6.80508046 8.83402597,6.11218391 L8.83402597,1.17983908 L8.83402597,1.17983908 Z" id="Shape"></path>
                    <rect id="Rectangle-path" x="21.4285714" y="14.4597701" width="2.63337662" height="2.74110345"></rect>
                    <rect id="Rectangle-path" x="17.5324675" y="14.4597701" width="2.63220779" height="2.74110345"></rect>
                    <rect id="Rectangle-path" x="13.6363636" y="14.4597701" width="2.63025974" height="2.74110345"></rect>
                    <rect id="Rectangle-path" x="21.4285714" y="17.9770115" width="2.63337662" height="2.74110345"></rect>
                    <rect id="Rectangle-path" x="17.5324675" y="17.9770115" width="2.63220779" height="2.74110345"></rect>
                    <rect id="Rectangle-path" x="13.6363636" y="17.9770115" width="2.63025974" height="2.74110345"></rect>
                    <rect id="Rectangle-path" x="9.74025974" y="17.9770115" width="2.63220779" height="2.74110345"></rect>
                    <rect id="Rectangle-path" x="5.84415584" y="17.9770115" width="2.63376623" height="2.74110345"></rect>
                    <rect id="Rectangle-path" x="21.4285714" y="21.8850575" width="2.63337662" height="2.73993103"></rect>
                    <rect id="Rectangle-path" x="17.5324675" y="21.8850575" width="2.63220779" height="2.73993103"></rect>
                    <rect id="Rectangle-path" x="13.6363636" y="21.8850575" width="2.63025974" height="2.73993103"></rect>
                    <rect id="Rectangle-path" x="9.74025974" y="21.8850575" width="2.63220779" height="2.73993103"></rect>
                    <rect id="Rectangle-path" x="5.84415584" y="21.8850575" width="2.63376623" height="2.73993103"></rect>
                    <rect id="Rectangle-path" x="17.5324675" y="25.7931034" width="2.63220779" height="2.73993103"></rect>
                    <rect id="Rectangle-path" x="13.6363636" y="25.7931034" width="2.63025974" height="2.73993103"></rect>
                    <rect id="Rectangle-path" x="9.74025974" y="25.7931034" width="2.63220779" height="2.73993103"></rect>
                    <rect id="Rectangle-path" x="5.84415584" y="25.7931034" width="2.63376623" height="2.73993103"></rect>
                </g>
            </g>
        </g>
    </g>
</svg>