<?xml version="1.0" encoding="UTF-8" standalone="no"?>
<svg width="100px" height="114px" viewBox="0 0 100 114" version="1.1" xmlns="http://www.w3.org/2000/svg" xmlns:xlink="http://www.w3.org/1999/xlink" xmlns:sketch="http://www.bohemiancoding.com/sketch/ns">
    <!-- Generator: Sketch 3.1.1 (8761) - http://www.bohemiancoding.com/sketch -->
    <title>Group 2</title>
    <desc>Created with Sketch.</desc>
    <defs></defs>
    <g id="Page-1" stroke="none" stroke-width="1" fill="none" fill-rule="evenodd" sketch:type="MSPage">
        <g id="New-Question-2" sketch:type="MSArtboardGroup" transform="translate(-400.000000, -428.000000)" fill="#00CC99">
            <g id="Group-2-+-Date-2" sketch:type="MSLayerGroup" transform="translate(400.000000, 429.000000)">
                <g id="Group-2" sketch:type="MSShapeGroup">
                    <path d="M79.0454545,3.92122989 C79.0454545,1.62745977 77.1818182,-0.238988506 74.8766234,-0.238988506 C72.587013,-0.238988506 70.7181818,1.62875862 70.7181818,3.92122989 L70.7181818,20.314023 C70.7181818,22.6155862 72.587013,24.4794368 74.8766234,24.4794368 C77.1818182,24.4794368 79.0454545,22.6168851 79.0454545,20.314023 L79.0454545,3.92122989 L79.0454545,3.92122989 Z" id="Shape"></path>
                    <path d="M88.0948052,13.3378966 L82.4519481,13.3378966 L82.4519481,20.314023 C82.4519481,24.4898276 79.061039,27.8863218 74.8766234,27.8863218 C70.7090909,27.8863218 67.3142857,24.4898276 67.3142857,20.314023 L67.3142857,13.3378966 L32.8480519,13.3378966 L32.8480519,20.314023 C32.8480519,24.4898276 29.4584416,27.8863218 25.2857143,27.8863218 C21.112987,27.8863218 17.7155844,24.4898276 17.7155844,20.314023 L17.7155844,13.3378966 L12.061039,13.3378966 C5.64155844,13.3378966 0.437662338,18.5384943 0.433766234,24.9626092 L0.433766234,101.288264 C0.437662338,107.705885 5.63376623,112.90908 12.061039,112.912977 L88.0948052,112.912977 C94.512987,112.90908 99.7116883,107.705885 99.7194805,101.288264 L99.7194805,24.9613103 C99.7116883,18.5371954 94.512987,13.3404943 88.0948052,13.3378966 L88.0948052,13.3378966 Z M90.0948052,101.286966 C90.0948052,102.384494 89.1909091,103.289793 88.0948052,103.289793 L12.061039,103.289793 C10.9558442,103.289793 10.0584416,102.384494 10.0545455,101.286966 L10.0545455,40.2228046 L90.0948052,40.2228046 L90.0948052,101.286966 L90.0948052,101.286966 Z" id="Shape"></path>
                    <path d="M29.4467532,3.92122989 C29.4467532,1.62745977 27.5792208,-0.238988506 25.2857143,-0.238988506 C22.9805195,-0.238988506 21.1220779,1.62875862 21.1220779,3.92122989 L21.1220779,20.314023 C21.1220779,22.6155862 22.9805195,24.4794368 25.2857143,24.4794368 C27.5792208,24.4794368 29.4467532,22.6168851 29.4467532,20.314023 L29.4467532,3.92122989 L29.4467532,3.92122989 Z" id="Shape"></path>
                    <rect id="Rectangle-path" x="71.4285714" y="48.0574713" width="8.77792208" height="9.11013793"></rect>
                    <rect id="Rectangle-path" x="58.4415584" y="48.0574713" width="8.77402597" height="9.11013793"></rect>
                    <rect id="Rectangle-path" x="45.4545455" y="48.0574713" width="8.76753247" height="9.11013793"></rect>
                    <rect id="Rectangle-path" x="71.4285714" y="59.7471264" width="8.77792208" height="9.11013793"></rect>
                    <rect id="Rectangle-path" x="58.4415584" y="59.7471264" width="8.77402597" height="9.11013793"></rect>
                    <rect id="Rectangle-path" x="45.4545455" y="59.7471264" width="8.76753247" height="9.11013793"></rect>
                    <rect id="Rectangle-path" x="32.4675325" y="59.7471264" width="8.77402597" height="9.11013793"></rect>
                    <rect id="Rectangle-path" x="19.4805195" y="59.7471264" width="8.77922078" height="9.11013793"></rect>
                    <rect id="Rectangle-path" x="71.4285714" y="72.7356322" width="8.77792208" height="9.10624138"></rect>
                    <rect id="Rectangle-path" x="58.4415584" y="72.7356322" width="8.77402597" height="9.10624138"></rect>
                    <rect id="Rectangle-path" x="45.4545455" y="72.7356322" width="8.76753247" height="9.10624138"></rect>
                    <rect id="Rectangle-path" x="32.4675325" y="72.7356322" width="8.77402597" height="9.10624138"></rect>
                    <rect id="Rectangle-path" x="19.4805195" y="72.7356322" width="8.77922078" height="9.10624138"></rect>
                    <rect id="Rectangle-path" x="58.4415584" y="85.7241379" width="8.77402597" height="9.10624138"></rect>
                    <rect id="Rectangle-path" x="45.4545455" y="85.7241379" width="8.76753247" height="9.10624138"></rect>
                    <rect id="Rectangle-path" x="32.4675325" y="85.7241379" width="8.77402597" height="9.10624138"></rect>
                    <rect id="Rectangle-path" x="19.4805195" y="85.7241379" width="8.77922078" height="9.10624138"></rect>
                </g>
            </g>
        </g>
    </g>
</svg>