<?xml version="1.0" encoding="UTF-8" standalone="no"?>
<svg width="33px" height="18px" viewBox="0 0 33 18" version="1.1" xmlns="http://www.w3.org/2000/svg" xmlns:xlink="http://www.w3.org/1999/xlink" xmlns:sketch="http://www.bohemiancoding.com/sketch/ns">
    <!-- Generator: Sketch 3.1.1 (8761) - http://www.bohemiancoding.com/sketch -->
    <title>bow4</title>
    <desc>Created with Sketch.</desc>
    <defs></defs>
    <g id="Page-1" stroke="none" stroke-width="1" fill="none" fill-rule="evenodd" sketch:type="MSPage">
        <g id="24-open-table-max-4" sketch:type="MSArtboardGroup" transform="translate(-43.000000, -1826.000000)" fill="#000000">
            <g id="bow4" sketch:type="MSLayerGroup" transform="translate(44.000000, 1826.000000)">
                <path d="M15.6167447,10.0581429 L15.0920532,10.0581429 C13.8497447,10.0581429 12.8429043,11.0397857 12.8429043,12.2502857 L12.8429043,14.5883571 C12.8429043,15.7991786 13.8500745,16.7805 15.0920532,16.7805 L15.6167447,16.7805 C16.859383,16.7805 17.8658936,15.7988571 17.8658936,14.5883571 L17.8658936,12.2502857 C17.8658936,11.0397857 16.8590532,10.0581429 15.6167447,10.0581429 L15.6167447,10.0581429 Z" id="Shape" sketch:type="MSShapeGroup"></path>
                <path d="M30.7895957,6.04478571 C30.6276702,5.68125 30.4281489,5.32864286 30.1867447,5.00689286 C30.1310106,4.92171429 30.0624149,4.84907143 30.0000851,4.77 C29.9347872,4.6935 29.8741064,4.61057143 29.8028723,4.53921429 C29.6640319,4.39360714 29.5265106,4.24221429 29.3748085,4.10817857 C29.2999468,4.04003571 29.2270638,3.96835714 29.1495638,3.90214286 C29.0714043,3.83753571 28.9929149,3.77260714 28.9140957,3.70767857 L28.7960319,3.60964286 L28.6733511,3.51835714 C28.5915638,3.45728571 28.509117,3.39621429 28.4266702,3.33514286 C27.7598404,2.85525 27.0260638,2.45860714 26.2635957,2.10567857 C25.5007979,1.75242857 24.7000745,1.45832143 23.8789043,1.20567857 C23.0580638,0.952071429 22.2138085,0.744107143 21.3560319,0.57825 C19.6391596,0.237857143 17.8754574,0.0758571429 16.0969149,0.0366428571 C14.3378298,0.00739285714 12.5579681,0.116678571 10.8341702,0.37575 C9.97078723,0.503035714 9.12026596,0.675321429 8.28920213,0.885214286 C7.45780851,1.09414286 6.64587234,1.34292857 5.86394681,1.64153571 C5.08268085,1.93917857 4.32779787,2.27764286 3.62139362,2.67942857 C2.91531915,3.07864286 2.2501383,3.53121429 1.67268085,4.06864286 C1.60111702,4.13614286 1.5292234,4.20332143 1.45798936,4.26985714 C1.39038298,4.34153571 1.32310638,4.41257143 1.25582979,4.48392857 C1.11830851,4.6215 0.999585106,4.779 0.875914894,4.92685714 C0.644074468,5.23864286 0.426744681,5.55910714 0.273393617,5.91139286 C0.185670213,6.08078571 0.131585106,6.26625 0.0659574468,6.44239286 C0.040893617,6.53367857 0.0191276596,6.62592857 -0.00362765957,6.71689286 C-0.0148404255,6.76285714 -0.0263829787,6.80721429 -0.0362765957,6.85382143 L-0.0573829787,7.00071429 C-0.0699148936,7.09714286 -0.0860744681,7.19967857 -0.0926702128,7.28871429 C-0.0943191489,7.37003571 -0.0962978723,7.45135714 -0.0979468085,7.53203571 L-0.0995957447,7.59246429 C-0.101574468,7.67410714 -0.0999255319,7.64678571 -0.0999255319,7.66253571 L-0.0903617021,7.81521429 C-0.0867340426,7.90489286 -0.0699148936,7.99360714 -0.0593617021,8.082 C0.0484787234,8.78882143 0.36012766,9.40532143 0.731797872,9.90225 C1.10940426,10.3991786 1.53647872,10.7990357 1.96487234,11.1285 C2.82132979,11.79225 3.66987234,12.1940357 4.36803191,12.4958571 C5.03782979,12.7832143 5.58989362,12.9516429 5.97673404,13.0699286 L5.97673404,17.4201429 C5.97673404,17.7219643 6.22902128,17.9681786 6.53869149,17.9681786 C6.58090426,17.9681786 6.62311702,17.9604643 6.6623617,17.9453571 L11.9020213,15.9351429 C12.1754149,15.8985 12.3868085,15.669 12.3868085,15.3925714 L12.3868085,11.7205714 C12.3868085,11.4470357 12.1803617,11.2197857 11.9119149,11.1786429 L6.67687234,8.89907143 C6.63334043,8.88010714 6.58684043,8.87078571 6.53902128,8.87078571 C6.22935106,8.87078571 5.97706383,9.11635714 5.97706383,9.4185 L5.97706383,12.9735 C5.611,12.8127857 5.10510638,12.5765357 4.4976383,12.2435357 C4.17147872,12.0628929 3.81728723,11.8513929 3.44990426,11.5997143 C3.0845,11.34675 2.69831915,11.0619643 2.32961702,10.7186786 C1.95860638,10.3786071 1.60441489,9.97939286 1.31618085,9.52167857 C1.03355319,9.063 0.817542553,8.54067857 0.77862766,7.98557143 C0.775989362,7.91614286 0.767085106,7.84671429 0.770712766,7.77696429 L0.77137234,7.67217857 L0.778957447,7.57864286 C0.785882979,7.49796429 0.793138298,7.41728571 0.800393617,7.33596429 C0.811276596,7.263 0.828755319,7.20482143 0.841946809,7.13796429 L0.861404255,7.04121429 L0.894382979,6.93803571 C0.916478723,6.86892857 0.939234043,6.7995 0.961329787,6.73007143 C1.02431915,6.59539286 1.07147872,6.45557143 1.1522766,6.32475 C1.29045745,6.05571429 1.48338298,5.80275 1.68818085,5.55525 C1.8006383,5.43696429 1.90287234,5.31096429 2.02885106,5.19942857 C2.08953191,5.14189286 2.14988298,5.08467857 2.2112234,5.02682143 C2.2758617,4.97217857 2.34181915,4.91753571 2.40678723,4.86257143 C2.66830851,4.64271429 2.9578617,4.44182143 3.25467021,4.24446429 C3.40901064,4.15253571 3.56005319,4.05482143 3.71868085,3.96578571 C3.88060638,3.87964286 4.03659574,3.78482143 4.20478723,3.70446429 C4.86667021,3.37017857 5.57340426,3.07414286 6.31410638,2.82246429 C7.05447872,2.57175 7.8248617,2.35542857 8.6153617,2.17575 C9.40652128,1.99767857 10.2174681,1.85335714 11.040617,1.74085714 C11.8640957,1.62867857 12.6997766,1.55732143 13.5410638,1.50653571 C14.384,1.45928571 15.2242979,1.44 16.0800957,1.46057143 C17.7626702,1.49014286 19.4594255,1.64282143 21.089234,1.93532143 C21.9051277,2.0835 22.7058511,2.2635 23.4841489,2.48078571 C24.2614574,2.69903571 25.0143617,2.95810714 25.7306596,3.25639286 C26.4459681,3.55564286 27.1230213,3.90182143 27.7347766,4.29814286 C28.343234,4.69671429 28.8906809,5.148 29.3111596,5.65585714 C29.5242021,5.90817857 29.6940426,6.17817857 29.8375,6.45267857 C29.9657872,6.73167857 30.0643936,7.01646429 30.1115532,7.30510714 C30.127383,7.37710714 30.1267234,7.44975 30.1356277,7.52207143 L30.1461809,7.63039286 C30.1491489,7.61496429 30.1478298,7.73678571 30.1478298,7.73678571 L30.1471702,7.86278571 L30.1399149,7.96242857 L30.1326596,8.06175 L30.1168298,8.16782143 C30.074617,8.451 29.9882128,8.7255 29.8734468,8.98682143 C29.6419362,9.51075 29.290383,9.97264286 28.9058511,10.3721786 C28.5236277,10.7755714 28.1011702,11.1137143 27.6869574,11.4094286 C26.8512766,11.9963571 26.0409894,12.4122857 25.362617,12.7263214 C25.1541915,12.8205 24.9599468,12.9050357 24.7772447,12.9828214 L24.7772447,9.41882143 C24.7772447,9.11667857 24.5249574,8.87110714 24.2146277,8.87110714 C24.1674681,8.87110714 24.1206383,8.88042857 24.0774362,8.89971429 L18.8423936,11.1792857 C18.573617,11.2201071 18.3671702,11.4473571 18.3671702,11.7212143 L18.3671702,15.3928929 C18.3671702,15.6693214 18.5785638,15.8988214 18.8519574,15.9354643 L24.0919468,17.9456786 C24.1308617,17.9611071 24.1730745,17.9685 24.2149574,17.9685 C24.5252872,17.9685 24.7775745,17.7226071 24.7775745,17.4204643 L24.7775745,13.2068571 C24.9916064,13.1451429 25.223117,13.0734643 25.4724362,12.9882857 C26.1926915,12.7411071 27.0669574,12.4106786 27.9949787,11.86425 C28.458,11.5907143 28.9394894,11.2708929 29.4008617,10.8636429 C29.862234,10.4596071 30.3034894,9.96139286 30.6378936,9.34425 C30.9699894,8.72775 31.1609362,7.97335714 31.0834362,7.19003571 C31.0478191,6.80014286 30.9373404,6.41635714 30.7895957,6.04478571 Z" id="Shape" sketch:type="MSShapeGroup"></path>
            </g>
        </g>
    </g>
</svg>