<?xml version="1.0" encoding="UTF-8" standalone="no"?>
<svg width="28px" height="28px" viewBox="0 0 28 28" version="1.1" xmlns="http://www.w3.org/2000/svg" xmlns:xlink="http://www.w3.org/1999/xlink" xmlns:sketch="http://www.bohemiancoding.com/sketch/ns">
    <!-- Generator: Sketch 3.2 (9961) - http://www.bohemiancoding.com/sketch -->
    <title>Oval 144 + Oval 112</title>
    <desc>Created with Sketch.</desc>
    <defs></defs>
    <g id="Page-1" stroke="none" stroke-width="1" fill="none" fill-rule="evenodd" sketch:type="MSPage">
        <g id="Dashboard" sketch:type="MSArtboardGroup" transform="translate(-387.000000, -159.000000)">
            <g id="Oval-144-+-Oval-112" sketch:type="MSLayerGroup" transform="translate(387.000000, 159.000000)">
                <circle id="Oval-144" fill="#54BDFF" sketch:type="MSShapeGroup" cx="14" cy="14" r="14"></circle>
                <path d="M7.45109481,9.26002822 C7.97636997,9.26002822 8.40218962,8.82775143 8.40218962,8.29451098 C8.40218962,7.76127053 7.97636997,7.32899374 7.45109481,7.32899374 C6.92581965,7.32899374 6.5,7.76127053 6.5,8.29451098 C6.5,8.82775143 6.92581965,9.26002822 7.45109481,9.26002822 Z M7.45109481,13.1220972 C7.97636997,13.1220972 8.40218962,12.6898204 8.40218962,12.1565799 C8.40218962,11.6233395 7.97636997,11.1910627 7.45109481,11.1910627 C6.92581965,11.1910627 6.5,11.6233395 6.5,12.1565799 C6.5,12.6898204 6.92581965,13.1220972 7.45109481,13.1220972 Z M7.45109481,16.9841662 C7.97636997,16.9841662 8.40218962,16.5518894 8.40218962,16.0186489 C8.40218962,15.4854085 7.97636997,15.0531317 7.45109481,15.0531317 C6.92581965,15.0531317 6.5,15.4854085 6.5,16.0186489 C6.5,16.5518894 6.92581965,16.9841662 7.45109481,16.9841662 Z M7.45109481,20.8462351 C7.97636997,20.8462351 8.40218962,20.4139583 8.40218962,19.8807179 C8.40218962,19.3474774 7.97636997,18.9152006 7.45109481,18.9152006 C6.92581965,18.9152006 6.5,19.3474774 6.5,19.8807179 C6.5,20.4139583 6.92581965,20.8462351 7.45109481,20.8462351 Z M9.62841877,7 L9.62841877,9.4137931 L21.5,9.4137931 L21.5,7 L9.62841877,7 Z M9.58882901,10.862069 L9.58882901,13.2758621 L19.3375508,13.2758621 L19.3375508,10.862069 L9.58882901,10.862069 Z M9.58882901,14.7241379 L9.58882901,17.137931 L16.7220401,17.137931 L16.7220401,14.7241379 L9.58882901,14.7241379 Z M9.58882901,18.5862069 L9.58882901,21 L20.5264194,21 L20.5264194,18.5862069 L9.58882901,18.5862069 Z" id="Oval-112" fill="#FFFFFF" sketch:type="MSShapeGroup"></path>
            </g>
        </g>
    </g>
</svg>