<?xml version="1.0" encoding="UTF-8" standalone="no"?>
<svg width="320px" height="320px" viewBox="0 0 320 320" version="1.1" xmlns="http://www.w3.org/2000/svg" xmlns:xlink="http://www.w3.org/1999/xlink" xmlns:sketch="http://www.bohemiancoding.com/sketch/ns">
    <!-- Generator: Sketch 3.1.1 (8761) - http://www.bohemiancoding.com/sketch -->
    <title>Rectangle 634 + Fandango</title>
    <desc>Created with Sketch.</desc>
    <defs></defs>
    <g id="Page-1" stroke="none" stroke-width="1" fill="none" fill-rule="evenodd" sketch:type="MSPage">
        <g id="21---Choose-Vote" sketch:type="MSArtboardGroup" transform="translate(-320.000000, -767.000000)">
            <g id="Rectangle-634-+-Fandango" sketch:type="MSLayerGroup" transform="translate(320.000000, 767.000000)">
                <rect id="Rectangle-634" fill="#E6834E" sketch:type="MSShapeGroup" x="0" y="0" width="320" height="320"></rect>
                <g id="Fandango" transform="translate(42.000000, 76.000000)" fill="#FFFFFF" sketch:type="MSShapeGroup">
                    <path d="M141.518045,0.258232558 L63.9908977,21.7779845 C65.3445227,26.5586357 69.40675,42.2717519 70.4236591,46.3702326 C75.163375,46.0277829 79.5636705,47.0537674 83.2878295,49.444093 C88.3656136,52.1768682 92.0897727,56.9588837 93.44475,62.4230698 C93.7828182,64.1312248 94.1208864,66.1804651 94.1208864,67.8886202 C94.1208864,71.6460155 93.1053295,75.4034109 91.4136364,78.8183566 C89.0431023,82.9182016 85.6570114,85.992062 81.5947841,87.6988527 C82.6103409,92.1397829 86.6725682,107.51045 88.0275455,112.292465 C94.1208864,110.925395 139.825,98.2875039 139.825,98.2875039 L131.023057,64.4723101 C133.392239,63.7901395 154.382216,57.6424186 154.382216,57.6424186 L148.965011,36.4651163 C148.965011,36.4651163 127.636966,42.2717519 125.267784,42.9539225 C124.590295,40.5635969 120.866136,26.5586357 120.188648,24.5093953 C122.559182,23.8272248 145.918341,17.3370543 145.918341,17.3370543 L141.518045,0.258232558" id="Fill-19"></path>
                    <path d="M34.1989773,168.993116 L33.5214886,164.211101 L29.7973295,164.211101 L29.1211932,168.993116 L26.0731705,168.993116 L29.7973295,142.350264 L33.5214886,142.350264 L37.5837159,168.993116 L34.1989773,168.993116 L34.1989773,168.993116 Z M31.490375,150.20614 L30.1353977,161.478326 L32.844,161.478326 L31.490375,150.20614 L31.490375,150.20614 Z" id="Fill-22"></path>
                    <path d="M65.6839432,168.993116 L59.9286705,153.963535 L59.9286705,168.993116 L56.2045114,168.993116 L56.2045114,142.350264 L57.8962045,142.350264 L63.9908977,157.72093 L63.9908977,142.350264 L67.3756364,142.350264 L67.3756364,168.993116 L65.6839432,168.993116" id="Fill-23"></path>
                    <path d="M90.3967273,168.993116 L87.6894773,168.993116 L87.6894773,142.350264 L90.3967273,142.350264 C94.1208864,142.350264 98.5225341,144.058419 98.5225341,155.67169 C98.5225341,167.284961 94.1208864,168.993116 90.3967273,168.993116 L90.3967273,168.993116 Z M91.4136364,145.424124 L91.4136364,166.260341 C92.7672614,166.260341 94.798375,164.552186 94.798375,155.67169 C94.798375,146.791194 92.7672614,145.424124 91.4136364,145.424124 L91.4136364,145.424124 Z" id="Fill-24"></path>
                    <path d="M124.590295,168.993116 L123.912807,164.211101 L120.188648,164.211101 L119.85058,168.993116 L116.465841,168.993116 L120.528068,142.350264 L123.912807,142.350264 L127.976386,168.993116 L124.590295,168.993116 L124.590295,168.993116 Z M122.221114,150.20614 L120.866136,161.478326 L123.574739,161.478326 L122.221114,150.20614 L122.221114,150.20614 Z" id="Fill-25"></path>
                    <path d="M156.41333,168.993116 L150.319989,153.963535 L150.319989,168.993116 L146.933898,168.993116 L146.933898,142.350264 L148.626943,142.350264 L154.382216,157.72093 L154.382216,142.350264 L158.106375,142.350264 L158.106375,168.993116 L156.41333,168.993116" id="Fill-26"></path>
                    <path d="M185.529114,169.334202 C182.481091,169.334202 177.741375,167.626047 177.741375,155.67169 C177.741375,143.717333 182.481091,142.350264 185.189693,142.350264 L187.222159,142.350264 L187.222159,145.424124 C186.882739,145.083039 186.54467,145.083039 185.867182,145.083039 C184.174136,145.083039 181.466886,146.448744 181.466886,155.67169 C181.466886,164.552186 183.836068,166.260341 185.529114,166.260341 L185.867182,166.260341 L185.867182,160.794791 C185.867182,157.72093 185.529114,157.379845 184.513557,157.379845 L183.836068,157.379845 L183.836068,154.64707 C183.836068,154.64707 184.513557,154.305984 184.851625,154.305984 C187.560227,154.305984 189.253273,156.355225 189.253273,161.135876 L189.253273,168.309581 C188.575784,168.650667 187.222159,169.334202 185.529114,169.334202" id="Fill-27"></path>
                    <path d="M214.981614,169.334202 C211.934943,169.334202 208.888273,167.284961 208.888273,155.67169 C208.888273,144.058419 211.934943,142.350264 214.981614,142.350264 C217.690216,142.350264 220.738239,144.058419 220.738239,155.67169 C220.738239,167.284961 217.690216,169.334202 214.981614,169.334202 L214.981614,169.334202 Z M214.981614,145.083039 C213.627989,145.083039 212.612432,146.791194 212.612432,155.67169 C212.612432,164.552186 213.627989,166.260341 214.981614,166.260341 C215.99717,166.260341 217.352148,164.552186 217.352148,155.67169 C217.352148,146.791194 215.99717,145.083039 214.981614,145.083039 L214.981614,145.083039 Z" id="Fill-28"></path>
                    <path d="M5.08319318,137.909333 L5.08319318,153.62245 L10.1623295,153.62245 L10.1623295,157.379845 L5.08319318,157.379845 L5.08319318,168.993116 L1.02096591,168.993116 L1.02096591,157.379845 L-0.332659091,157.379845 L-0.332659091,153.62245 L1.02096591,153.62245 L1.02096591,134.153302 L11.5159545,134.153302 L11.5159545,137.909333 L5.08319318,137.909333" id="Fill-29"></path>
                    <path d="M34.1989773,168.993116 L33.5214886,164.211101 L29.7973295,164.211101 L29.1211932,168.993116 L26.0731705,168.993116 L29.7973295,142.350264 L33.5214886,142.350264 L37.5837159,168.993116 L34.1989773,168.993116 L34.1989773,168.993116 Z M31.490375,150.20614 L30.1353977,161.478326 L32.844,161.478326 L31.490375,150.20614 L31.490375,150.20614 Z" id="Fill-30"></path>
                    <path d="M65.6839432,168.993116 L59.9286705,153.963535 L59.9286705,168.993116 L56.2045114,168.993116 L56.2045114,142.350264 L57.8962045,142.350264 L63.9908977,157.72093 L63.9908977,142.350264 L67.3756364,142.350264 L67.3756364,168.993116 L65.6839432,168.993116" id="Fill-31"></path>
                    <path d="M90.3967273,168.993116 L87.6894773,168.993116 L87.6894773,142.350264 L90.3967273,142.350264 C94.1208864,142.350264 98.5225341,144.058419 98.5225341,155.67169 C98.5225341,167.284961 94.1208864,168.993116 90.3967273,168.993116 L90.3967273,168.993116 Z M91.4136364,145.424124 L91.4136364,166.260341 C92.7672614,166.260341 94.798375,164.552186 94.798375,155.67169 C94.798375,146.791194 92.7672614,145.424124 91.4136364,145.424124 L91.4136364,145.424124 Z" id="Fill-32"></path>
                    <path d="M124.590295,168.993116 L123.912807,164.211101 L120.188648,164.211101 L119.85058,168.993116 L116.465841,168.993116 L120.528068,142.350264 L123.912807,142.350264 L127.976386,168.993116 L124.590295,168.993116 L124.590295,168.993116 Z M122.221114,150.20614 L120.866136,161.478326 L123.574739,161.478326 L122.221114,150.20614 L122.221114,150.20614 Z" id="Fill-33"></path>
                    <path d="M156.41333,168.993116 L150.319989,153.963535 L150.319989,168.993116 L146.933898,168.993116 L146.933898,142.350264 L148.626943,142.350264 L154.382216,157.72093 L154.382216,142.350264 L158.106375,142.350264 L158.106375,168.993116 L156.41333,168.993116" id="Fill-34"></path>
                    <path d="M185.529114,169.334202 C182.481091,169.334202 177.741375,167.626047 177.741375,155.67169 C177.741375,143.717333 182.481091,142.350264 185.189693,142.350264 L187.222159,142.350264 L187.222159,145.424124 C186.882739,145.083039 186.54467,145.083039 185.867182,145.083039 C184.174136,145.083039 181.466886,146.448744 181.466886,155.67169 C181.466886,164.552186 183.836068,166.260341 185.529114,166.260341 L185.867182,166.260341 L185.867182,160.794791 C185.867182,157.72093 185.529114,157.379845 184.513557,157.379845 L183.836068,157.379845 L183.836068,154.64707 C183.836068,154.64707 184.513557,154.305984 184.851625,154.305984 C187.560227,154.305984 189.253273,156.355225 189.253273,161.135876 L189.253273,168.309581 C188.575784,168.650667 187.222159,169.334202 185.529114,169.334202" id="Fill-35"></path>
                    <path d="M214.981614,169.334202 C211.934943,169.334202 208.888273,167.284961 208.888273,155.67169 C208.888273,144.058419 211.934943,142.350264 214.981614,142.350264 C217.690216,142.350264 220.738239,144.058419 220.738239,155.67169 C220.738239,167.284961 217.690216,169.334202 214.981614,169.334202 L214.981614,169.334202 Z M214.981614,145.083039 C213.627989,145.083039 212.612432,146.791194 212.612432,155.67169 C212.612432,164.552186 213.627989,166.260341 214.981614,166.260341 C215.99717,166.260341 217.352148,164.552186 217.352148,155.67169 C217.352148,146.791194 215.99717,145.083039 214.981614,145.083039 L214.981614,145.083039 Z" id="Fill-36"></path>
                    <path d="M230.893807,146.107659 L230.893807,142.691349 L229.87825,142.691349 L229.87825,142.350264 L232.92492,142.350264 L232.92492,142.691349 L231.909364,142.691349 L231.909364,146.107659 L230.893807,146.107659" id="Fill-37"></path>
                    <path d="M236.311011,146.107659 L236.311011,142.691349 L235.295455,146.107659 L234.956034,146.107659 L233.940477,142.691349 L233.940477,146.107659 L233.264341,146.107659 L233.264341,142.350264 L234.278545,142.350264 L235.295455,144.740589 L235.971591,142.350264 L237.326568,142.350264 L237.326568,146.107659 L236.311011,146.107659" id="Fill-38"></path>
                </g>
            </g>
        </g>
    </g>
</svg>