<?xml version="1.0" encoding="UTF-8" standalone="no"?>
<svg width="21px" height="21px" viewBox="0 0 21 21" version="1.1" xmlns="http://www.w3.org/2000/svg" xmlns:xlink="http://www.w3.org/1999/xlink" xmlns:sketch="http://www.bohemiancoding.com/sketch/ns">
    <!-- Generator: Sketch 3.1.1 (8761) - http://www.bohemiancoding.com/sketch -->
    <title>business64</title>
    <desc>Created with Sketch.</desc>
    <defs></defs>
    <g id="Page-1" stroke="none" stroke-width="1" fill="none" fill-rule="evenodd" sketch:type="MSPage">
        <g id="41-Active-Poll" sketch:type="MSArtboardGroup" transform="translate(-392.000000, -234.000000)" fill="#000000">
            <g id="List-10-+-Circle-5-+-Las-Vegas-+-Facebook_Places-4" sketch:type="MSLayerGroup" transform="translate(109.000000, 229.000000)">
                <g id="Las-Vegas-+-Facebook_Places-4" transform="translate(283.000000, 0.000000)" sketch:type="MSShapeGroup">
                    <g id="business64" transform="translate(0.000000, 5.000000)">
                        <path d="M8.938375,20.839793 C5.40905729,20.1053672 2.75,16.9317422 2.75,13.125 C2.75,10.2423398 4.29144271,7.74941016 6.56445312,6.37661719 C7.28851302,7.96211719 8.76682552,9.58223437 10.8027344,10.7780859 C13.4718828,12.3430781 16.3024089,12.7288711 18.1389974,11.9816484 C18.1945391,12.3585 18.25,12.7328086 18.25,13.125 C18.25,16.9317422 15.5960286,20.1053672 12.0641276,20.839793 C17.0239661,20.0694375 20.8333333,15.755168 20.8333333,10.5 C20.8333333,4.70145703 16.2065833,0 10.5,0 C4.796,0 0.166666667,4.70145703 0.166666667,10.5 C0.166666667,15.755168 3.98111979,20.0694375 8.938375,20.839793 L8.938375,20.839793 Z" id="Shape"></path>
                    </g>
                </g>
            </g>
        </g>
    </g>
</svg>