<?xml version="1.0" encoding="UTF-8" standalone="no"?>
<svg width="320px" height="321px" viewBox="0 0 320 321" version="1.1" xmlns="http://www.w3.org/2000/svg" xmlns:xlink="http://www.w3.org/1999/xlink" xmlns:sketch="http://www.bohemiancoding.com/sketch/ns">
    <!-- Generator: Sketch 3.1.1 (8761) - http://www.bohemiancoding.com/sketch -->
    <title>Rectangle 634 + Opentable</title>
    <desc>Created with Sketch.</desc>
    <defs></defs>
    <g id="Page-1" stroke="none" stroke-width="1" fill="none" fill-rule="evenodd" sketch:type="MSPage">
        <g id="21---Choose-Vote" sketch:type="MSArtboardGroup" transform="translate(-320.000000, -129.000000)">
            <g id="Rectangle-634-+-Opentable" sketch:type="MSLayerGroup" transform="translate(320.000000, 129.000000)">
                <rect id="Rectangle-634" fill="#EE3124" sketch:type="MSShapeGroup" x="0" y="0.202098326" width="320" height="320"></rect>
                <g id="Opentable" transform="translate(46.000000, 105.000000)" sketch:type="MSShapeGroup">
                    <path d="M39.3446368,74.1053784 C39.3446368,71.4752973 37.5489947,68.7811892 34.2459,68.7811892 C31.0598053,68.7811892 29.1527053,71.4752973 29.1527053,74.1053784 L29.1527053,95.1304865 C29.1527053,97.7605676 31.1213842,100.454054 34.3025526,100.454054 C37.5489947,100.454054 39.3446368,97.7605676 39.3446368,95.1304865 L39.3446368,74.1053784 L39.3446368,74.1053784 Z M34.3025526,104.603378 C28.5714,104.603378 24.7510421,100.160649 24.7510421,95.1304865 L24.7510421,74.1053784 C24.7510421,69.1939459 28.5714,64.6306216 34.3025526,64.6306216 C39.9819789,64.6306216 43.6890316,69.1939459 43.6890316,74.1053784 L43.6890316,95.1304865 C43.6890316,100.160649 39.9234789,104.603378 34.3025526,104.603378 L34.3025526,104.603378 Z" id="Fill-1" fill="#FFFFFF"></path>
                    <path d="M65.6413105,85.8938108 C65.6413105,83.2631081 63.8438211,80.5677568 60.5949158,80.5677568 C57.3552474,80.5677568 55.4444526,83.2631081 55.4444526,85.8938108 L55.4444526,95.1304865 C55.4444526,97.7605676 57.3552474,100.454054 60.5407263,100.454054 C63.8438211,100.454054 65.6413105,97.7605676 65.6413105,95.1304865 L65.6413105,85.8938108 L65.6413105,85.8938108 Z M60.5949158,104.603378 C58.3417421,104.603378 57.0695211,104.020297 56.1415263,103.54973 C55.7314105,103.376919 55.4444526,103.610027 55.4444526,104.020297 L55.4444526,114.242865 C55.4444526,114.646919 55.0928368,115 54.7510737,115 L51.7367842,115 C51.3285158,115 51.0415579,114.646919 51.0415579,114.242865 L51.0415579,85.8938108 C51.0415579,80.8642703 54.9832263,76.4196757 60.5949158,76.4196757 C66.2170737,76.4196757 69.9844737,80.9227027 69.9844737,85.8938108 L69.9844737,95.1304865 C69.9844737,100.043162 66.3346895,104.603378 60.5949158,104.603378 L60.5949158,104.603378 Z" id="Fill-2" fill="#FFFFFF"></path>
                    <path d="M81.0520579,85.8938108 L81.0520579,87.8233243 C81.0520579,88.2323514 81.3999789,88.5804595 81.8039368,88.5804595 L90.4902632,88.5804595 C90.8942211,88.5804595 91.2452211,88.2323514 91.2452211,87.8233243 L91.2452211,85.8938108 C91.2452211,83.2631081 89.4477316,80.5677568 86.1464842,80.5677568 C82.9591579,80.5677568 81.0520579,83.2631081 81.0520579,85.8938108 L81.0520579,85.8938108 Z M94.2570474,92.4376216 L81.8039368,92.4376216 C81.3999789,92.4376216 81.0520579,92.7913243 81.0520579,93.200973 L81.0520579,95.1304865 C81.0520579,97.7605676 83.0201211,100.454054 86.2062158,100.454054 C89.4477316,100.454054 91.1904158,97.9949189 92.1128684,96.6540811 C92.3487158,96.3022432 92.8099421,96.2407027 93.0981316,96.416 L95.0113895,97.7605676 C95.7645,98.2895676 95.5883842,98.6985946 95.4769263,98.9913784 C94.6628526,100.626243 91.8234474,104.603378 86.2062158,104.603378 C80.4695211,104.603378 76.6491632,100.160649 76.6491632,95.1304865 L76.6491632,85.8938108 C76.6491632,80.9798919 80.4695211,76.4196757 86.2062158,76.4196757 C91.8807158,76.4196757 95.5883842,80.9798919 95.5883842,85.8938108 L95.5883842,91.0955405 C95.5883842,91.7961081 94.8937737,92.4376216 94.2570474,92.4376216 L94.2570474,92.4376216 Z" id="Fill-3" fill="#FFFFFF"></path>
                    <path d="M120.679342,104.020297 L117.9009,104.020297 C117.493247,104.020297 117.084363,103.665351 117.084363,103.258811 L117.084363,85.8938108 C117.084363,83.2631081 115.294879,80.5677568 111.989937,80.5677568 C108.806305,80.5677568 106.891816,83.2631081 106.891816,85.8938108 L106.891816,103.258811 C106.891816,103.665351 106.490321,104.020297 106.138089,104.020297 L103.304842,104.020297 C102.900268,104.020297 102.493232,103.785324 102.493232,103.258811 L102.493232,77.763 C102.493232,77.3527297 102.780189,77.0015135 103.187226,77.0015135 L105.681174,77.0015135 C106.543895,77.0015135 106.429974,78.1751351 107.010663,77.8214324 C108.514421,76.8877568 110.252795,76.4196757 112.045358,76.4196757 C117.726632,76.4196757 121.431837,80.9798919 121.431837,85.8938108 L121.431837,103.258811 C121.431837,103.665351 121.028495,104.020297 120.679342,104.020297" id="Fill-4" fill="#FFFFFF"></path>
                    <path d="M142.065711,69.5202973 L136.3284,69.5202973 C135.921979,69.5202973 135.574674,69.924973 135.574674,70.3358649 L135.574674,103.258811 C135.574674,103.665351 135.1701,104.020297 134.764911,104.020297 L131.930432,104.020297 C131.578816,104.020297 131.176089,103.665351 131.176089,103.258811 L131.176089,70.2774324 C131.176089,69.869027 130.769668,69.5202973 130.420516,69.5202973 L124.572979,69.5202973 C124.162863,69.5202973 123.819253,69.1094054 123.819253,68.701 L123.819253,66.3034054 C123.819253,65.9540541 124.162863,65.545027 124.572979,65.545027 L142.065711,65.545027 C142.469668,65.545027 142.815742,65.9540541 142.815742,66.3034054 L142.815742,68.701 C142.815742,69.1094054 142.469668,69.5202973 142.065711,69.5202973" id="Fill-5" fill="#FFFFFF"></path>
                    <path d="M198.162284,65.6171351 L195.319184,65.6171351 C194.970647,65.6171351 194.568537,65.9695946 194.568537,66.3773784 L194.568537,103.258811 C194.568537,103.665351 194.970647,104.020297 195.319184,104.020297 L198.162284,104.020297 C198.564395,104.020297 198.972047,103.665351 198.972047,103.258811 L198.972047,66.3773784 C198.972047,65.9695946 198.564395,65.6171351 198.162284,65.6171351" id="Fill-6" fill="#FFFFFF"></path>
                    <path d="M152.259489,89.8106486 C148.896663,89.8106486 147.102253,92.6166486 147.102253,95.1304865 C147.102253,97.8171351 149.132511,100.454054 152.259489,100.454054 C155.502237,100.454054 157.299111,97.8171351 157.299111,95.1304865 C157.299111,92.6166486 155.325505,89.8106486 152.259489,89.8106486 L152.259489,89.8106486 Z M160.944584,104.020297 L158.456179,104.020297 C157.582989,104.020297 157.931526,102.673865 157.009074,103.318486 C157.009074,103.318486 155.325505,104.603378 152.259489,104.603378 C146.871332,104.603378 142.703053,100.454054 142.703053,95.1304865 C142.703053,89.5744324 146.871332,85.6588378 152.259489,85.6588378 C153.763247,85.6588378 155.270084,86.2419189 156.598958,86.7137297 C157.122379,86.8840541 157.299111,86.3594054 157.299111,85.8938108 C157.299111,83.0859459 155.270084,80.5677568 152.259489,80.5677568 C149.999542,80.5677568 148.489011,81.1570541 147.274674,81.8594865 C146.812832,82.1516486 146.290642,82.0322973 146.060953,81.6232703 L144.842305,79.4587838 C144.607074,78.9907027 144.842305,78.5251081 145.131111,78.3510541 C147.451405,77.0636757 149.708889,76.4196757 152.259489,76.4196757 C157.642105,76.4196757 161.644737,80.6902162 161.644737,85.8938108 L161.644737,103.258811 C161.644737,103.665351 161.348542,104.020297 160.944584,104.020297 L160.944584,104.020297 Z" id="Fill-7" fill="#FFFFFF"></path>
                    <path d="M173.301016,85.8938108 C173.301016,83.2631081 175.213658,80.5677568 178.4016,80.5677568 C181.699768,80.5677568 183.496642,83.2631081 183.496642,85.8938108 L183.496642,95.1304865 C183.496642,96.3271081 183.122242,97.538027 182.414084,98.4947027 C182.310632,98.5761351 182.219495,98.6675135 182.140058,98.757027 C181.968868,98.9851622 181.678216,99.3245676 181.220068,99.6422162 C180.688026,100.001514 180.059305,100.26073 179.355458,100.377595 C179.340063,100.380081 179.327747,100.382568 179.318511,100.382568 C179.252005,100.395 179.191042,100.401216 179.129463,100.41427 C179.054953,100.419865 178.985368,100.426081 178.912089,100.435405 C178.878221,100.435405 178.848047,100.435405 178.815411,100.436649 C178.691637,100.447216 178.572789,100.454054 178.441626,100.454054 C175.266616,100.441 173.301016,97.7605676 173.301016,95.1304865 L173.301016,85.8938108 L173.301016,85.8938108 Z M178.455789,76.4196757 C176.474179,76.4196757 174.724105,76.9623514 173.275768,77.878 L173.275768,66.1865405 C173.275768,65.7768919 172.930926,65.4262973 172.580542,65.4262973 L169.569332,65.4262973 C169.222642,65.4262973 168.8778,65.7768919 168.8778,66.1865405 L168.8778,95.1304865 C168.8778,100.160649 172.701237,104.603378 178.435468,104.603378 L178.445321,104.603378 L178.455789,104.603378 L178.527221,104.603378 C178.655921,104.603378 178.786468,104.595919 178.912089,104.591568 C178.969358,104.591568 179.026011,104.585351 179.086358,104.585351 C179.193505,104.579135 179.3025,104.566703 179.413342,104.557378 C179.450905,104.55427 179.492779,104.548054 179.534653,104.545568 C180.406611,104.458541 181.170189,104.263973 181.846326,104.011595 C181.852484,104.004757 181.865416,104.004757 181.872805,104.00227 C181.981184,103.958757 182.078479,103.917108 182.186858,103.872351 C185.675921,102.412784 187.841037,98.9416486 187.841037,95.1304865 L187.841037,85.8938108 C187.841037,80.9798919 184.132753,76.4196757 178.455789,76.4196757 L178.455789,76.4196757 Z" id="Fill-8" fill="#FFFFFF"></path>
                    <path d="M210.184958,85.8938108 L210.184958,87.8233243 C210.184958,88.2323514 210.534726,88.5804595 210.941147,88.5804595 L219.629937,88.5804595 C220.035126,88.5804595 220.378737,88.2323514 220.378737,87.8233243 L220.378737,85.8938108 C220.378737,83.2631081 218.581863,80.5677568 215.284311,80.5677568 C212.096984,80.5677568 210.184958,83.2631081 210.184958,85.8938108 L210.184958,85.8938108 Z M223.393026,92.4376216 L210.941147,92.4376216 C210.534726,92.4376216 210.184958,92.7913243 210.184958,93.200973 L210.184958,95.1304865 C210.184958,97.7605676 212.154868,100.454054 215.339732,100.454054 C218.581863,100.454054 220.324547,97.9949189 221.247616,96.6540811 C221.477305,96.3022432 221.944689,96.2407027 222.232263,96.416 L224.142442,97.7605676 C224.896168,98.2895676 224.725595,98.6985946 224.606747,98.9913784 C223.798216,100.626243 220.958811,104.603378 215.339732,104.603378 C209.604884,104.603378 205.781447,100.160649 205.781447,95.1304865 L205.781447,85.8938108 C205.781447,80.9798919 209.604884,76.4196757 215.339732,76.4196757 C221.015463,76.4196757 224.725595,80.9798919 224.725595,85.8938108 L224.725595,91.0955405 C224.725595,91.7961081 224.025442,92.4376216 223.393026,92.4376216 L223.393026,92.4376216 Z" id="Fill-9" fill="#FFFFFF"></path>
                    <path d="M231.2622,75.3703784 L232.098442,77.7772973 L232.931605,75.3685135 L233.892853,75.3672703 L233.895316,78.7314865 L233.287532,78.7333514 L233.283837,76.0187297 L232.376163,78.7333514 L231.846584,78.7333514 L230.913663,76.0187297 L230.918589,78.7352162 L230.307111,78.7377027 L230.304032,75.3722432 L231.2622,75.3703784 L231.2622,75.3703784 Z M226.290316,75.9310811 L226.290316,75.3765946 L229.145732,75.3722432 L229.145732,75.9273514 L228.050858,75.9310811 L228.053321,78.7377027 L227.388268,78.7401892 L227.384574,75.9310811 L226.290316,75.9310811 L226.290316,75.9310811 Z" id="Fill-10" fill="#FFFFFF"></path>
                    <path d="M113.007221,16.9615676 C113.010916,16.9317297 113.007221,16.725973 113.007221,16.725973 L113.001063,16.725973 C112.727037,13.1901892 102.530179,10.35 89.9742316,10.35 C77.4299842,10.35 67.2275842,13.1901892 66.9523263,16.725973 L66.9510947,16.725973 L66.9510947,16.7502162 C66.9498632,16.79 66.9498632,16.9522432 66.9510947,16.9938919 L66.9510947,20.5414865 C66.9498632,20.5825135 66.9381632,20.6222973 66.9381632,20.6633243 C66.9381632,24.2662432 77.2557158,27.1872432 89.9742316,27.1872432 C102.704447,27.1872432 113.017074,24.2662432 113.017074,20.6633243 C113.017074,20.6334865 113.010916,20.603027 113.007221,20.5738108 L113.007221,16.9615676" id="Fill-11" fill="#FFFFFF"></path>
                    <path d="M54.9998526,24.2861351 C55.0010842,24.2693514 55.0041632,24.2525676 55.0041632,24.2357838 C55.0041632,19.5593243 42.7573421,15.7692973 27.6427895,15.7692973 C12.5343947,15.7692973 0.282647368,19.5593243 0.282647368,24.2357838 C0.282647368,24.2525676 0.286957895,24.2693514 0.286957895,24.2861351 L0.282647368,24.2861351 L0.282647368,28.9998919 L0.286957895,28.9998919 C0.3861,33.6502432 12.5953579,37.4091892 27.6427895,37.4091892 C42.6957632,37.4091892 54.9007105,33.6502432 54.9998526,28.9998919 L55.0121684,28.9998919 L55.0121684,24.2861351 L54.9998526,24.2861351" id="Fill-12" stroke="#FFFFFF"></path>
                    <path d="M117.191511,46.685027 C117.191511,46.6520811 117.177347,46.2890541 117.177347,46.2890541 C116.723511,39.4549459 100.979005,33.9647838 81.6050368,33.9647838 C62.2329158,33.9647838 46.4828684,39.4549459 46.0308789,46.2890541 L46.0216421,46.2890541 C46.0216421,46.2890541 46.0185632,46.6955946 46.0216421,46.7490541 L46.0216421,52.2392162 L46.0308789,52.2392162 C46.4619316,59.0758108 62.2206,64.5715676 81.6050368,64.5715676 C100.990705,64.5715676 116.743832,59.0758108 117.177347,52.2392162 L117.191511,52.2392162 L117.191511,51.8550541 L117.191511,46.685027" id="Fill-13" stroke="#FFFFFF"></path>
                    <path d="M65.6930368,3.99454054 C65.5095316,1.61745946 56.8416789,-0.293405405 46.1737421,-0.293405405 C35.5039579,-0.293405405 26.8373368,1.61745946 26.6556789,3.99454054 L26.6458263,3.99454054 L26.6458263,6.50278378 L26.6556789,6.50278378 C26.8662789,8.87551351 35.5224316,10.7801622 46.1737421,10.7801622 C56.8262842,10.7801622 65.4787421,8.87551351 65.6899579,6.50278378 L65.7004263,6.50278378 L65.7004263,3.99454054 L65.6930368,3.99454054" id="Fill-14" stroke="#FFFFFF"></path>
                    <path d="M112.8933,20.5806486 L112.8933,16.9870541 C112.723342,20.5302973 102.532642,23.3872703 89.9742316,23.3872703 C77.4638526,23.3872703 67.2940895,20.5477027 67.0656316,17.0187568 L67.0656316,20.5483243 C67.0637842,20.5887297 67.0533158,20.6291351 67.0533158,20.6695405 C67.0533158,24.2550541 77.3203737,27.1611351 89.9742316,27.1611351 C102.639789,27.1611351 112.900074,24.2550541 112.900074,20.6695405 C112.900074,20.6397027 112.895147,20.6104865 112.8933,20.5806486" id="Fill-15" fill="#FFFFFF"></path>
                    <path d="M54.9998526,24.2861351 C54.9130263,28.9395946 42.7019211,32.7035135 27.6427895,32.7035135 C12.5892,32.7035135 0.375631579,28.9395946 0.286957895,24.2861351 L0.282647368,24.2861351 L0.282647368,28.9998919 L0.286957895,28.9998919 C0.3861,33.6502432 12.5953579,37.4091892 27.6427895,37.4091892 C42.6957632,37.4091892 54.9007105,33.6502432 54.9998526,28.9998919 L55.0121684,28.9998919 L55.0121684,24.2861351 L54.9998526,24.2861351" id="Fill-16" fill="#FFFFFF"></path>
                    <path d="M117.191511,46.685027 C117.043721,53.6117568 101.171132,59.2075946 81.6050368,59.2075946 C62.0986737,59.2075946 46.2642632,53.6459459 46.0216421,46.7490541 C46.0216421,46.7490541 46.0185632,52.0577027 46.0216421,52.1124054 L46.0216421,52.2392162 L46.0308789,52.2392162 C46.4619316,59.0758108 62.2206,64.5715676 81.6050368,64.5715676 C100.990705,64.5715676 116.743832,59.0758108 117.177347,52.2392162 L117.191511,52.2392162 L117.191511,46.685027" id="Fill-17" fill="#FFFFFF"></path>
                    <path d="M46.1737421,8.43478378 C35.3875737,8.43478378 26.6458263,6.47916216 26.6458263,4.071 L26.6458263,6.50278378 L26.6556789,6.50278378 C26.8662789,8.87551351 35.5224316,10.7801622 46.1737421,10.7801622 C56.8262842,10.7801622 65.4787421,8.87551351 65.6899579,6.50278378 L65.7004263,6.50278378 L65.7004263,4.071 C65.7004263,6.47916216 56.9574474,8.43478378 46.1737421,8.43478378" id="Fill-18" fill="#FFFFFF"></path>
                </g>
            </g>
        </g>
    </g>
</svg>