<?xml version="1.0" encoding="UTF-8" standalone="no"?>
<svg width="10px" height="13px" viewBox="0 0 10 13" version="1.1" xmlns="http://www.w3.org/2000/svg" xmlns:xlink="http://www.w3.org/1999/xlink" xmlns:sketch="http://www.bohemiancoding.com/sketch/ns">
    <!-- Generator: Sketch 3.1 (8751) - http://www.bohemiancoding.com/sketch -->
    <title>Las Vegas + Facebook_Places 2</title>
    <desc>Created with Sketch.</desc>
    <defs></defs>
    <g id="Page-1" stroke="none" stroke-width="1" fill="none" fill-rule="evenodd" sketch:type="MSPage">
        <g id="Take-Poll-2" sketch:type="MSArtboardGroup" transform="translate(-668.000000, -279.000000)" fill="#1B1B1B">
            <g id="Group-+-Japanese-+-Las-Vegas-+-Facebook_Places-2" sketch:type="MSLayerGroup" transform="translate(668.000000, 277.000000)">
                <g id="Las-Vegas-+-Facebook_Places-2" transform="translate(0.000000, 2.000000)" sketch:type="MSShapeGroup">
                    <path d="M9.76370968,3.23555556 C9.71209677,3.06207778 9.60709677,2.87733333 9.52951613,2.71555556 C8.60064516,0.716444444 6.57112903,0 4.93241935,0 C2.73870968,0 0.322580645,1.31733333 0,4.03274444 L0,4.58755556 C0,4.61066667 0.00887096774,4.81866667 0.0216129032,4.92266667 C0.202419355,6.21674444 1.34258065,7.592 2.19419355,8.88607778 C3.11032258,10.2726 4.06096774,11.6364444 5.00290323,12.9998556 C5.58354839,12.1102222 6.16225806,11.2088889 6.72967742,10.3420778 C6.88451613,10.0878556 7.06403226,9.83363333 7.21887097,9.59096667 C7.32209677,9.42933333 7.51919355,9.26755556 7.60935484,9.11718889 C8.52532258,7.61511111 10,6.10133333 10,4.61066667 L10,3.99822222 C10,3.83658889 9.77645161,3.27036667 9.76370968,3.23555556 L9.76370968,3.23555556 Z M4.97258065,6.02044444 C4.32774194,6.02044444 3.62193548,5.7317 3.27354839,4.93422222 C3.2216129,4.80725556 3.22580645,4.55288889 3.22580645,4.52963333 L3.22580645,4.17141111 C3.22580645,3.15481111 4.18967742,2.69244444 5.02822581,2.69244444 C6.06048387,2.69244444 6.85903226,3.43214444 6.85903226,4.35658889 C6.85887097,5.28103333 6.00483871,6.02044444 4.97258065,6.02044444 L4.97258065,6.02044444 Z" id="Facebook_Places"></path>
                </g>
            </g>
        </g>
    </g>
</svg>