<?xml version="1.0" encoding="UTF-8" standalone="no"?>
<svg width="52px" height="52px" viewBox="0 0 52 52" version="1.1" xmlns="http://www.w3.org/2000/svg" xmlns:xlink="http://www.w3.org/1999/xlink" xmlns:sketch="http://www.bohemiancoding.com/sketch/ns">
    <!-- Generator: Sketch 3.1 (8751) - http://www.bohemiancoding.com/sketch -->
    <title>Plus</title>
    <desc>Created with Sketch.</desc>
    <defs></defs>
    <g id="Page-1" stroke="none" stroke-width="1" fill="none" fill-rule="evenodd" sketch:type="MSPage">
        <g id="Screen-One" sketch:type="MSArtboardGroup" transform="translate(-1064.000000, -536.000000)">
            <g id="Group" sketch:type="MSLayerGroup" transform="translate(326.000000, 536.000000)">
                <g id="Plus" transform="translate(738.000000, 0.000000)" sketch:type="MSShapeGroup">
                    <circle id="Oval-135" stroke="#00CC99" stroke-width="2" cx="26" cy="26" r="26"></circle>
                    <g id="Group" transform="translate(14.068966, 15.068966)" fill="#00CC99">
                        <path d="M22.364739,13.0726269 L0.773193574,13.0726269 C0.293329937,13.0726269 -0.0961246082,12.54082 -0.0961246082,11.885558 C-0.0961246082,11.2302959 0.293329937,10.698489 0.773193574,10.698489 L22.364739,10.698489 C22.8446027,10.698489 23.2340572,11.2302959 23.2340572,11.885558 C23.2340572,12.54082 22.8446027,13.0726269 22.364739,13.0726269 L22.364739,13.0726269 Z" id="Shape"></path>
                        <path d="M11.8867171,23.2328981 C11.231455,23.2328981 10.6996481,22.8434436 10.6996481,22.3635799 L10.6996481,0.773193574 C10.6996481,0.293329937 11.231455,-0.0961246082 11.8867171,-0.0961246082 C12.5419791,-0.0961246082 13.073786,0.293329937 13.073786,0.773193574 L13.073786,22.3635799 C13.073786,22.8434436 12.5419791,23.2328981 11.8867171,23.2328981 L11.8867171,23.2328981 Z" id="Shape"></path>
                    </g>
                </g>
            </g>
        </g>
    </g>
</svg>