<?xml version="1.0" encoding="UTF-8" standalone="no"?>
<svg width="58px" height="58px" viewBox="0 0 58 58" version="1.1" xmlns="http://www.w3.org/2000/svg" xmlns:xlink="http://www.w3.org/1999/xlink" xmlns:sketch="http://www.bohemiancoding.com/sketch/ns">
    <!-- Generator: Sketch 3.1 (8751) - http://www.bohemiancoding.com/sketch -->
    <title>Group</title>
    <desc>Created with Sketch.</desc>
    <defs></defs>
    <g id="Page-1" stroke="none" stroke-width="1" fill="none" fill-rule="evenodd" sketch:type="MSPage">
        <g id="Sign-Up" sketch:type="MSArtboardGroup" transform="translate(-21.000000, -55.000000)">
            <g id="Group" sketch:type="MSLayerGroup" transform="translate(50.000000, 84.000000) scale(-1, 1) translate(-50.000000, -84.000000) translate(21.000000, 55.000000)">
                <path d="M25.4949545,39.3925455 C25.2418636,39.3925455 24.9887727,39.2963182 24.7963182,39.1025455 C24.4100909,38.7176364 24.4100909,38.0901818 24.7963182,37.7039545 L33.7546818,28.7363636 L24.7963182,19.7687727 C24.4114091,19.3825455 24.4114091,18.7550909 24.7963182,18.3701818 C25.1825455,17.9839545 25.8086818,17.9839545 26.1949091,18.3701818 L35.8505909,28.0364091 C36.2368182,28.4226364 36.2368182,29.0487727 35.8505909,29.435 L26.1949091,39.1012273 C26.0011364,39.2963182 25.7480455,39.3925455 25.4949545,39.3925455 L25.4949545,39.3925455 Z" id="Shape" fill="#00CC99" sketch:type="MSShapeGroup"></path>
                <circle id="Oval-136" stroke="#00CC99" stroke-width="2" sketch:type="MSShapeGroup" cx="29" cy="29" r="29"></circle>
            </g>
        </g>
    </g>
</svg>