<?xml version="1.0" encoding="UTF-8" standalone="no"?>
<svg width="30px" height="28px" viewBox="0 0 30 28" version="1.1" xmlns="http://www.w3.org/2000/svg" xmlns:xlink="http://www.w3.org/1999/xlink" xmlns:sketch="http://www.bohemiancoding.com/sketch/ns">
    <!-- Generator: Sketch 3.1.1 (8761) - http://www.bohemiancoding.com/sketch -->
    <title>Oval 111</title>
    <desc>Created with Sketch.</desc>
    <defs></defs>
    <g id="Page-1" stroke="none" stroke-width="1" fill="none" fill-rule="evenodd" sketch:type="MSPage">
        <g id="Results-Date-(Anon)" sketch:type="MSArtboardGroup" transform="translate(-580.000000, -575.000000)" fill="#BEBEBE">
            <g id="Rectangle-260-+-Oval-111" sketch:type="MSLayerGroup" transform="translate(30.000000, 543.000000)">
                <path d="M551.90219,36.5200564 C552.95274,36.5200564 553.804379,35.6555029 553.804379,34.589022 C553.804379,33.5225411 552.95274,32.6579875 551.90219,32.6579875 C550.851639,32.6579875 550,33.5225411 550,34.589022 C550,35.6555029 550.851639,36.5200564 551.90219,36.5200564 Z M551.90219,44.2441944 C552.95274,44.2441944 553.804379,43.3796408 553.804379,42.3131599 C553.804379,41.246679 552.95274,40.3821254 551.90219,40.3821254 C550.851639,40.3821254 550,41.246679 550,42.3131599 C550,43.3796408 550.851639,44.2441944 551.90219,44.2441944 Z M551.90219,51.9683323 C552.95274,51.9683323 553.804379,51.1037787 553.804379,50.0372978 C553.804379,48.9708169 552.95274,48.1062633 551.90219,48.1062633 C550.851639,48.1062633 550,48.9708169 550,50.0372978 C550,51.1037787 550.851639,51.9683323 551.90219,51.9683323 Z M551.90219,59.6924702 C552.95274,59.6924702 553.804379,58.8279166 553.804379,57.7614358 C553.804379,56.6949549 552.95274,55.8304013 551.90219,55.8304013 C550.851639,55.8304013 550,56.6949549 550,57.7614358 C550,58.8279166 550.851639,59.6924702 551.90219,59.6924702 Z M556.256838,32 L556.256838,36.8275862 L580,36.8275862 L580,32 L556.256838,32 Z M556.177658,39.7241379 L556.177658,44.5517241 L575.675102,44.5517241 L575.675102,39.7241379 L556.177658,39.7241379 Z M556.177658,47.4482759 L556.177658,52.2758621 L570.44408,52.2758621 L570.44408,47.4482759 L556.177658,47.4482759 Z M556.177658,55.1724138 L556.177658,60 L578.052839,60 L578.052839,55.1724138 L556.177658,55.1724138 Z" id="Oval-111" sketch:type="MSShapeGroup"></path>
            </g>
        </g>
    </g>
</svg>