<?xml version="1.0" encoding="UTF-8" standalone="no"?>
<svg width="20px" height="18px" viewBox="0 0 20 18" version="1.1" xmlns="http://www.w3.org/2000/svg" xmlns:xlink="http://www.w3.org/1999/xlink" xmlns:sketch="http://www.bohemiancoding.com/sketch/ns">
    <!-- Generator: Sketch 3.1.1 (8761) - http://www.bohemiancoding.com/sketch -->
    <title>Oval 111</title>
    <desc>Created with Sketch.</desc>
    <defs></defs>
    <g id="Page-1" stroke="none" stroke-width="1" fill="none" fill-rule="evenodd" sketch:type="MSPage">
        <g id="dinnerpoll-dahsboard" sketch:type="MSArtboardGroup" transform="translate(-863.000000, -342.000000)" fill="#4DBBFF">
            <path d="M864.268126,344.905751 C864.968493,344.905751 865.536253,344.349966 865.536253,343.664371 C865.536253,342.978776 864.968493,342.422992 864.268126,342.422992 C863.56776,342.422992 863,342.978776 863,343.664371 C863,344.349966 863.56776,344.905751 864.268126,344.905751 Z M864.268126,349.871268 C864.968493,349.871268 865.536253,349.315483 865.536253,348.629889 C865.536253,347.944294 864.968493,347.388509 864.268126,347.388509 C863.56776,347.388509 863,347.944294 863,348.629889 C863,349.315483 863.56776,349.871268 864.268126,349.871268 Z M864.268126,354.836785 C864.968493,354.836785 865.536253,354.281001 865.536253,353.595406 C865.536253,352.909811 864.968493,352.354026 864.268126,352.354026 C863.56776,352.354026 863,352.909811 863,353.595406 C863,354.281001 863.56776,354.836785 864.268126,354.836785 Z M864.268126,359.802302 C864.968493,359.802302 865.536253,359.246518 865.536253,358.560923 C865.536253,357.875328 864.968493,357.319544 864.268126,357.319544 C863.56776,357.319544 863,357.875328 863,358.560923 C863,359.246518 863.56776,359.802302 864.268126,359.802302 Z M867.171225,342 L867.171225,345.103448 L883,345.103448 L883,342 L867.171225,342 Z M867.118439,346.965517 L867.118439,350.068966 L880.116734,350.068966 L880.116734,346.965517 L867.118439,346.965517 Z M867.118439,351.931034 L867.118439,355.034483 L876.629387,355.034483 L876.629387,351.931034 L867.118439,351.931034 Z M867.118439,356.896552 L867.118439,360 L881.701892,360 L881.701892,356.896552 L867.118439,356.896552 Z" id="Oval-111" sketch:type="MSShapeGroup"></path>
        </g>
    </g>
</svg>