<?xml version="1.0" encoding="UTF-8" standalone="no"?>
<svg width="28px" height="28px" viewBox="0 0 28 28" version="1.1" xmlns="http://www.w3.org/2000/svg" xmlns:xlink="http://www.w3.org/1999/xlink" xmlns:sketch="http://www.bohemiancoding.com/sketch/ns">
    <!-- Generator: Sketch 3.2 (9961) - http://www.bohemiancoding.com/sketch -->
    <title>Oval 143 + Path 1332</title>
    <desc>Created with Sketch.</desc>
    <defs></defs>
    <g id="Page-1" stroke="none" stroke-width="1" fill="none" fill-rule="evenodd" sketch:type="MSPage">
        <g id="Dashboard" sketch:type="MSArtboardGroup" transform="translate(-387.000000, -260.000000)">
            <g id="Oval-143-+-Path-1332" sketch:type="MSLayerGroup" transform="translate(387.000000, 260.000000)">
                <circle id="Oval-143" fill="#FF5656" sketch:type="MSShapeGroup" cx="14" cy="14" r="14"></circle>
                <path d="M9.07207705,11.5078949 C7.26257579,9.73698191 6.72520848,7.61729919 7.55095133,7 L21.1692583,19.5996878 C21.1692583,19.5996878 21.7575285,21.3877334 19.7228995,20.8659089 C19.7228996,20.8659092 13.3430498,13.7577388 13.3430499,13.7577386 C11.61441,13.5957088 10.101544,12.5154082 9.07207705,11.5078949 Z M14.7920897,12.8568737 L15.7038305,13.7298552 L17.0049824,12.4716809 C17.0049824,12.4716809 17.830013,13.0266407 18.7355246,12.2172456 C18.7469677,12.2070172 22,9.15782829 22,9.15782829 L21.5678067,8.7477472 L19.2498068,10.8783634 L18.8338331,10.4893316 L21.1410674,8.36696944 L20.66233,7.9184831 L18.352268,10.0265239 L17.9126928,9.61450228 L20.2161518,7.49901121 L19.7357051,7.04373169 C19.7357051,7.04373169 16.4103951,10.1338871 16.4103951,10.1338872 C15.6120863,10.8783634 16.1095103,11.671924 16.1095103,11.671924 L14.7920897,12.8568737 Z M13.0908475,14.3590734 L14.0202457,15.3923196 L8.39633862,20.9075871 C8.39633862,20.9075871 7.68093255,21.1915313 7.23548797,20.7639839 C6.79004339,20.3364365 7.11334351,19.6363614 7.11334351,19.6363614 L13.0908475,14.3590734 Z" id="Path-1332" fill="#FFFFFF" sketch:type="MSShapeGroup"></path>
            </g>
        </g>
    </g>
</svg>