<?xml version="1.0" encoding="UTF-8" standalone="no"?>
<svg width="21px" height="20px" viewBox="0 0 21 20" version="1.1" xmlns="http://www.w3.org/2000/svg" xmlns:xlink="http://www.w3.org/1999/xlink" xmlns:sketch="http://www.bohemiancoding.com/sketch/ns">
    <!-- Generator: Sketch 3.1.1 (8761) - http://www.bohemiancoding.com/sketch -->
    <title>Path 1330</title>
    <desc>Created with Sketch.</desc>
    <defs></defs>
    <g id="Page-1" stroke="none" stroke-width="1" fill="none" fill-rule="evenodd" sketch:type="MSPage">
        <g id="dinnerpoll-dahsboard" sketch:type="MSArtboardGroup" transform="translate(-862.000000, -240.000000)" fill="#FF5656">
            <path d="M864.900908,246.43985 C862.367606,243.909974 861.615292,240.881856 862.771332,240 L881.836962,257.999554 C881.836962,257.999554 882.66054,260.553905 879.812059,259.808441 C879.812059,259.808442 870.88027,249.653913 870.88027,249.653912 C868.460174,249.422441 866.342162,247.879155 864.900908,246.43985 Z M872.908926,248.366962 L874.185363,249.614079 L876.006975,247.816687 C876.006975,247.816687 877.162018,248.609487 878.429734,247.453208 C878.445755,247.438596 883,243.082612 883,243.082612 L882.394929,242.496782 L879.14973,245.540519 L878.567366,244.984759 L881.797494,241.952813 L881.127262,241.312119 L877.893175,244.323606 L877.27777,243.735003 L880.502613,240.712873 L879.829987,240.062474 C879.829987,240.062474 875.174553,244.476982 875.174553,244.476982 C874.056921,245.540519 874.753314,246.674177 874.753314,246.674177 L872.908926,248.366962 Z M870.527186,250.512962 L871.828344,251.989028 L863.954874,259.867982 C863.954874,259.867982 862.953306,260.273616 862.329683,259.662834 C861.706061,259.052052 862.158681,258.051945 862.158681,258.051945 L870.527186,250.512962 Z" id="Path-1330" sketch:type="MSShapeGroup"></path>
        </g>
    </g>
</svg>