<?xml version="1.0" encoding="UTF-8" standalone="no"?>
<svg width="6px" height="12px" viewBox="0 0 6 12" version="1.1" xmlns="http://www.w3.org/2000/svg" xmlns:xlink="http://www.w3.org/1999/xlink" xmlns:sketch="http://www.bohemiancoding.com/sketch/ns">
    <!-- Generator: Sketch 3.1 (8751) - http://www.bohemiancoding.com/sketch -->
    <title>Group</title>
    <desc>Created with Sketch.</desc>
    <defs></defs>
    <g id="Page-1" stroke="none" stroke-width="1" fill="none" fill-rule="evenodd" sketch:type="MSPage">
        <g id="Screen-Two" sketch:type="MSArtboardGroup" transform="translate(-683.000000, -278.000000)" fill="#1D1D1B">
            <g id="Group-+-Japanese" sketch:type="MSLayerGroup" transform="translate(683.000000, 275.000000)">
                <g id="Group" transform="translate(0.000000, 4.000000)" sketch:type="MSShapeGroup">
                    <path d="M0.986571429,3.94775 L0.986571429,10.28225 C0.986571429,10.447375 1.04559184,10.59025 1.16387755,10.710875 C1.28008163,10.8295 1.41759184,10.88925 1.57604082,10.891125 C1.73436735,10.88925 1.872,10.8295 1.98832653,10.710875 C2.1064898,10.59025 2.1655102,10.447375 2.1655102,10.28225 L2.1655102,3.94775 C2.34281633,3.884375 3.00746939,3.279625 3.00746939,3.08575 L3.00746939,0.538 C3.00746939,0.455625 2.97783673,0.384125 2.91881633,0.32375 C2.85967347,0.2635 2.78963265,0.23325 2.70893878,0.23325 C2.628,0.23325 2.55808163,0.2635 2.49906122,0.32375 C2.43991837,0.38425 2.41040816,0.455625 2.41040816,0.538 L2.41040816,2.519 C2.41040816,2.601625 2.38077551,2.673 2.3217551,2.73325 C2.26261224,2.793625 2.19269388,2.823625 2.11187755,2.823625 C2.03093878,2.823625 1.96102041,2.793625 1.902,2.73325 C1.84297959,2.673 1.81334694,2.6015 1.81334694,2.519 L1.81334694,0.538 C1.81334694,0.455625 1.78371429,0.384125 1.72469388,0.32375 C1.66567347,0.2635 1.59563265,0.23325 1.51481633,0.23325 C1.43387755,0.23325 1.36395918,0.2635 1.30493878,0.32375 C1.24579592,0.38425 1.21628571,0.455625 1.21628571,0.538 L1.21628571,2.519 C1.21628571,2.601625 1.18665306,2.673 1.12763265,2.73325 C1.0684898,2.793625 0.998571429,2.823625 0.917755102,2.823625 C0.836816327,2.823625 0.766897959,2.793625 0.707877551,2.73325 C0.648734694,2.673 0.61922449,2.6015 0.61922449,2.519 L0.61922449,0.538 C0.61922449,0.455625 0.589714286,0.384125 0.530571429,0.32375 C0.47155102,0.2635 0.401510204,0.23325 0.320693878,0.23325 C0.239755102,0.23325 0.169836735,0.2635 0.110816327,0.32375 C0.0517959184,0.38425 0.0221632653,0.455625 0.0221632653,0.538 L0.0221632653,3.085625 C0.0221632653,3.2795 0.809265306,3.88425 0.986571429,3.94775 L0.986571429,3.94775 Z" id="Shape"></path>
                    <path id="Shape" d="M1.58363265,10.89175 C1.58106122,10.89175 1.57861224,10.891 1.57604082,10.891 C1.57346939,10.891 1.57114286,10.89175 1.56844898,10.89175 L1.58363265,10.89175 L1.58363265,10.89175 Z"></path>
                    <path d="M4.12126531,5.469125 L4.79889796,5.469125 L4.79889796,10.40725 C4.79889796,10.572375 4.85791837,10.71525 4.97608163,10.835875 C5.09240816,10.9545 5.22991837,11.01425 5.38836735,11.016125 C5.54669388,11.01425 5.68432653,10.9545 5.80065306,10.835875 C5.91881633,10.71525 5.97795918,10.572375 5.97795918,10.40725 L5.97795918,0.288 C5.97795918,0.205625 5.94832653,0.134125 5.88930612,0.07375 C5.83016327,0.0135 5.7602449,-0.01675 5.67942857,-0.01675 L5.46489796,-0.01675 C5.05432653,-0.01675 4.70289796,0.1325 4.41061224,0.430875 C4.11832653,0.729375 3.97212245,1.088125 3.97212245,1.507125 L3.97212245,5.31675 C3.97212245,5.358 3.98693878,5.39375 4.01644898,5.423875 C4.04583673,5.454 4.08085714,5.469125 4.12126531,5.469125 L4.12126531,5.469125 Z" id="Shape"></path>
                </g>
            </g>
        </g>
    </g>
</svg>