<?xml version="1.0" encoding="UTF-8" standalone="no"?>
<svg width="11px" height="22px" viewBox="0 0 11 22" version="1.1" xmlns="http://www.w3.org/2000/svg" xmlns:xlink="http://www.w3.org/1999/xlink" xmlns:sketch="http://www.bohemiancoding.com/sketch/ns">
    <!-- Generator: Sketch 3.1.1 (8761) - http://www.bohemiancoding.com/sketch -->
    <title>info2</title>
    <desc>Created with Sketch.</desc>
    <defs></defs>
    <g id="Page-1" stroke="none" stroke-width="1" fill="none" fill-rule="evenodd" sketch:type="MSPage">
        <g id="24-open-table-max-4" sketch:type="MSArtboardGroup" transform="translate(-46.000000, -1914.000000)" fill="#000000">
            <g id="info2" sketch:type="MSLayerGroup" transform="translate(46.000000, 1914.000000)">
                <path d="M8.40830435,0 C10.0095217,0 10.8098913,1.00474 10.8098913,2.15358 C10.8098913,3.58842 9.41958696,4.91568 7.60769565,4.91568 C6.09065217,4.91568 5.20563043,4.09024 5.24771739,2.72734 C5.24771739,1.57872 6.30108696,0 8.40830435,0 L8.40830435,0 Z M3.47767391,22 C2.2133913,22 1.28628261,21.28236 2.17130435,18.1247 L3.62282609,12.52416 C3.87558696,11.62722 3.91695652,11.26862 3.62282609,11.26862 C3.24308696,11.26862 1.60193478,11.88814 0.631304348,12.49842 L0,11.52932 C3.07593478,9.1256 6.61482609,7.71584 8.1313913,7.71584 C9.39519565,7.71584 9.60634783,9.11526 8.97432609,11.2684 L7.3126087,17.1556 C7.01752174,18.19598 7.1445,18.55458 7.43863043,18.55458 C7.8178913,18.55458 9.0616087,18.12272 10.2833261,17.22556 L11,18.12294 C8.008,20.922 4.74195652,22 3.47767391,22 L3.47767391,22 Z" id="Shape" sketch:type="MSShapeGroup"></path>
            </g>
        </g>
    </g>
</svg>