<?xml version="1.0" encoding="UTF-8" standalone="no"?>
<svg width="227px" height="55px" viewBox="0 0 227 55" version="1.1" xmlns="http://www.w3.org/2000/svg" xmlns:xlink="http://www.w3.org/1999/xlink" xmlns:sketch="http://www.bohemiancoding.com/sketch/ns">
    <!-- Generator: Sketch 3.1.1 (8761) - http://www.bohemiancoding.com/sketch -->
    <title>Top Bar</title>
    <desc>Created with Sketch.</desc>
    <defs></defs>
    <g id="Page-1" stroke="none" stroke-width="1" fill="none" fill-rule="evenodd" sketch:type="MSPage">
        <g id="Voter-1-Invite-Received" sketch:type="MSArtboardGroup" transform="translate(-206.000000, -52.000000)">
            <g id="Top-Bar" sketch:type="MSLayerGroup" transform="translate(206.000000, 53.000000)">
                <g id="Logo" transform="translate(51.654135, 2.148438)" font-weight="normal" font-family="Avenir Next" fill="#FFFFFF" sketch:alignment="middle" font-size="38.0487805" sketch:type="MSTextLayer">
                    <text id="instagator">
                        <tspan x="1.80228691" y="37.8823848">instagator</tspan>
                    </text>
                </g>
                <g id="Clipboard-6-+-Rectangle-110-+-Rectangle-256" sketch:type="MSShapeGroup">
                    <g id="Clipboard-6-+-Rectangle-110" fill="#FFFFFF">
                        <path d="M25.4777236,1.69483101 L28.8312586,1.69483101 L28.8312586,1.69742953 C28.8729293,1.69570289 28.9148215,1.69483101 28.9569179,1.69483101 C30.5997752,1.69483101 31.9315742,3.02273397 31.9315742,4.66078529 C31.9315742,4.69624303 31.9309501,4.73155546 31.9297124,4.76671223 L32.0183903,4.76671223 L32.0183903,4.9785661 L40.4631714,4.9785661 C42.8379216,4.9785661 44.7669173,6.90246651 44.7669173,9.27571793 L44.7669173,48.9840982 C44.7669173,51.3579201 42.8400646,53.28125 40.4631714,53.28125 L4.34458103,53.28125 C1.96983086,53.28125 0.0408351255,51.3573496 0.0408351255,48.9840982 L0.0408351255,9.27571793 C0.0408351255,6.90189596 1.9676878,4.9785661 4.34458103,4.9785661 L12.7893621,4.9785661 L12.7893621,4.76671223 C12.7899861,4.73155546 12.7893621,4.69624303 12.7893621,4.66078529 C12.7893621,3.02273397 14.1211611,1.69483101 15.7640184,1.69483101 C15.8354598,1.69483101 15.9063129,1.69734213 15.9764939,1.70228065 L15.9764939,1.69483101 L19.2352248,1.69483101 L19.2352248,1.69483101 C19.2704994,1.53871438 19.3104855,1.39412215 19.3517203,1.27546792 C19.6781322,0.336208582 20.3817132,2.46906662e-13 21.1821424,2.46906662e-13 C21.1970566,2.46906662e-13 21.2150711,-0.000387405132 21.2357244,-0.00107704904 C21.2661129,-0.0212758695 21.3981567,-0.022634067 21.5616286,-0.0174346702 C21.8616564,-0.0329011492 22.2297893,-0.0466132142 22.3507573,-0.000400177811 C22.4717254,-0.0466132142 22.8398583,-0.0329011492 23.1398861,-0.0174346702 C23.303358,-0.022634067 23.4354018,-0.0212758695 23.4657903,-0.00107704904 C23.4864436,-0.000387405132 23.5044581,2.46906662e-13 23.5193723,2.46906662e-13 C24.3198015,2.46906662e-13 25.0233825,0.336208582 25.3497944,1.27546792 C25.3910291,1.39412215 25.4358669,1.53871438 25.4777236,1.69483101 L25.4777236,1.69483101 Z M32.0183903,4.9785661 L35.2055221,4.9785661 L35.2055221,10.1061351 C35.2055221,12.4812153 33.277181,14.4060636 30.8984518,14.4060636 L13.9093006,14.4060636 C11.5266385,14.4060636 9.60223036,12.48092 9.60223036,10.1061351 L9.60223036,4.9785661 L12.7893621,4.9785661 L12.7893621,7.94452038 C12.7893621,9.69957536 14.2111275,11.1223285 15.9754311,11.1223285 L28.8323213,11.1223285 C30.5919386,11.1223285 32.0183903,9.69600417 32.0183903,7.94452038 L32.0183903,4.9785661 L32.0183903,4.9785661 L32.0183903,4.9785661 Z" id="Clipboard-6"></path>
                    </g>
                    <path d="M24.3850585,36.8557677 L20.2413399,40.9921353 L12.0257819,32.7911519 L16.2573192,28.5671214 L20.303219,32.6058438 L28.4309584,24.4925232 L32.6624956,28.7165536 L24.4469377,36.917537 L24.3850585,36.8557677 L24.3850585,36.8557677 Z" id="Rectangle-256" fill="#00CC99"></path>
                </g>
            </g>
        </g>
    </g>
</svg>