<?xml version="1.0" encoding="UTF-8" standalone="no"?>
<svg width="23px" height="24px" viewBox="0 0 23 24" version="1.1" xmlns="http://www.w3.org/2000/svg" xmlns:xlink="http://www.w3.org/1999/xlink" xmlns:sketch="http://www.bohemiancoding.com/sketch/ns">
    <!-- Generator: Sketch 3.1.1 (8761) - http://www.bohemiancoding.com/sketch -->
    <title>parking6</title>
    <desc>Created with Sketch.</desc>
    <defs></defs>
    <g id="Page-1" stroke="none" stroke-width="1" fill="none" fill-rule="evenodd" sketch:type="MSPage">
        <g id="24-open-table-max-4" sketch:type="MSArtboardGroup" transform="translate(-46.000000, -1647.000000)" fill="#000000">
            <g id="parking6" sketch:type="MSLayerGroup" transform="translate(46.000000, 1648.000000)">
                <g id="Group" sketch:type="MSShapeGroup">
                    <path d="M10.8036111,7.00354286 C10.2286111,7.00354286 9.82291667,7.05382857 9.60313889,7.10348571 L9.60313889,10.8623429 C9.87402778,10.9453143 10.19475,10.9622857 10.6176944,10.9622857 C12.17275,10.9622857 13.1195833,10.1973143 13.1195833,8.89994286 C13.1195833,7.65222857 12.2398333,7.00354286 10.8036111,7.00354286 L10.8036111,7.00354286 Z" id="Shape"></path>
                    <path d="M11.3613611,-0.088 C5.09833333,-0.088 0.0198055556,4.90725714 0.0198055556,11.0697714 C0.0198055556,17.2322857 5.09833333,22.2281714 11.3613611,22.2281714 C17.6243889,22.2281714 22.7029167,17.2322857 22.7029167,11.0697714 C22.7029167,4.90788571 17.6243889,-0.088 11.3613611,-0.088 L11.3613611,-0.088 Z M14.2178333,11.3444571 C13.3732222,12.1597143 12.0890556,12.5588571 10.6176944,12.5588571 C10.2286111,12.5588571 9.89,12.5418857 9.60313889,12.4758857 L9.60313889,16.7174857 L7.54016667,16.7174857 L7.54016667,5.65588571 C8.30108333,5.52262857 9.33225,5.42268571 10.7199167,5.42268571 C12.2398333,5.42268571 13.3393611,5.73885714 14.0664167,6.33725714 C14.7417222,6.88662857 15.1819167,7.76788571 15.1819167,8.81571429 C15.1825556,9.88051429 14.8439444,10.7460571 14.2178333,11.3444571 L14.2178333,11.3444571 Z" id="Shape"></path>
                </g>
            </g>
        </g>
    </g>
</svg>