<?xml version="1.0" encoding="UTF-8" standalone="no"?>
<svg width="22px" height="24px" viewBox="0 0 22 24" version="1.1" xmlns="http://www.w3.org/2000/svg" xmlns:xlink="http://www.w3.org/1999/xlink" xmlns:sketch="http://www.bohemiancoding.com/sketch/ns">
    <!-- Generator: Sketch 3.1.1 (8761) - http://www.bohemiancoding.com/sketch -->
    <title>Shape</title>
    <desc>Created with Sketch.</desc>
    <defs></defs>
    <g id="Page-1" stroke="none" stroke-width="1" fill="none" fill-rule="evenodd" sketch:type="MSPage">
        <g id="24-open-table-max-4" sketch:type="MSArtboardGroup" transform="translate(-47.000000, -1237.000000)" fill="#000000">
            <g id="phone16" sketch:type="MSLayerGroup" transform="translate(47.000000, 1238.000000)">
                <path d="M21.9084936,17.3896414 C21.9549017,17.7486423 21.8465403,18.0608169 21.5836368,18.3261654 L18.4974977,21.4166179 C18.3582734,21.5727052 18.1765083,21.705456 17.9522025,21.8146406 C17.7278966,21.9239017 17.5074961,21.994141 17.2909628,22.0253585 C17.2754934,22.0253585 17.2290095,22.0293372 17.1516627,22.0371415 C17.0743916,22.0449459 16.9738407,22.0488481 16.8500858,22.0488481 C16.5561299,22.0488481 16.0804089,21.9981197 15.4229607,21.8966629 C14.7655125,21.7952062 13.9611053,21.5453899 13.009815,21.1474438 C12.058373,20.7494211 10.9793845,20.1523106 9.77281166,19.3563417 C8.5662388,18.5603729 7.28224328,17.4676851 5.92093882,16.0785079 C4.83808301,15.0015054 3.94085962,13.971329 3.22926865,12.9879789 C2.51767769,12.0046287 1.94531104,11.0954201 1.51216872,10.2603529 C1.07898847,9.42528568 0.754131729,8.66826216 0.537560566,7.9892823 C0.320989403,7.31030243 0.174030399,6.72497496 0.096683555,6.23329989 C0.019336711,5.74162482 -0.0116020266,5.35530869 0.0038673422,5.0743515 C0.019336711,4.79339432 0.0270713954,4.63730699 0.0270713954,4.60608953 C0.058010133,4.38756727 0.127622293,4.16514284 0.235907874,3.93881622 C0.344193456,3.71248959 0.475683091,3.52908699 0.630376779,3.3886084 L3.71651585,0.274666265 C3.93308702,0.0561440103 4.18059692,-0.0531171171 4.45904556,-0.0531171171 C4.66014735,-0.0531171171 4.83804509,0.0054156297 4.99273878,0.122481123 C5.14743247,0.239546617 5.2789221,0.383927392 5.38720768,0.55562345 L7.87004138,5.30848249 C8.0092657,5.55822221 8.04793912,5.83137503 7.98606164,6.12794095 C7.92418417,6.42450686 7.79269453,6.67424658 7.59159274,6.87716011 L6.45459413,8.02440194 C6.42365539,8.05561941 6.396584,8.10634779 6.37337995,8.17658708 C6.35017589,8.24682638 6.33857387,8.30535913 6.33857387,8.35218533 C6.40045134,8.67996871 6.53967566,9.05457829 6.75624682,9.47601406 C6.94187925,9.85062364 7.22806257,10.3071791 7.61479679,10.8456803 C8.00153101,11.3841816 8.5506936,12.0046287 9.26228457,12.7069834 C9.95840617,13.4250234 10.5771809,13.9829973 11.1186088,14.3810582 C11.6599609,14.7790044 12.1125158,15.0717447 12.4760459,15.2590494 C12.8395761,15.4463542 13.1180247,15.5595175 13.3113919,15.5984629 L13.6013667,15.6569956 C13.6323054,15.6569956 13.6826567,15.6452891 13.7522309,15.621876 C13.8218052,15.5984629 13.8721186,15.5711476 13.9030573,15.5399301 L15.2256883,14.1819704 C15.5042128,13.9322307 15.8289937,13.8073608 16.2002586,13.8073608 C16.4633137,13.8073608 16.6720743,13.854187 16.826768,13.9478394 L16.8499721,13.9478394 L21.3282785,16.6169327 C21.653249,16.8199227 21.8466161,17.0774668 21.9084936,17.3896414 L21.9084936,17.3896414 Z" id="Shape" sketch:type="MSShapeGroup"></path>
            </g>
        </g>
    </g>
</svg>